G04 #@! TF.GenerationSoftware,KiCad,Pcbnew,(5.0.2)-1*
G04 #@! TF.CreationDate,2019-10-12T18:51:29+05:30*
G04 #@! TF.ProjectId,steambud_htswp,73746561-6d62-4756-945f-68747377702e,rev?*
G04 #@! TF.SameCoordinates,Original*
G04 #@! TF.FileFunction,Legend,Top*
G04 #@! TF.FilePolarity,Positive*
%FSLAX46Y46*%
G04 Gerber Fmt 4.6, Leading zero omitted, Abs format (unit mm)*
G04 Created by KiCad (PCBNEW (5.0.2)-1) date 10/12/2019 6:51:29 PM*
%MOMM*%
%LPD*%
G01*
G04 APERTURE LIST*
%ADD10C,0.100000*%
%ADD11C,0.150000*%
%ADD12C,0.187500*%
%ADD13C,0.175000*%
G04 APERTURE END LIST*
D10*
X46980952Y-37026190D02*
X46814285Y-36788095D01*
X46695238Y-37026190D02*
X46695238Y-36526190D01*
X46885714Y-36526190D01*
X46933333Y-36550000D01*
X46957142Y-36573809D01*
X46980952Y-36621428D01*
X46980952Y-36692857D01*
X46957142Y-36740476D01*
X46933333Y-36764285D01*
X46885714Y-36788095D01*
X46695238Y-36788095D01*
X47385714Y-37002380D02*
X47338095Y-37026190D01*
X47242857Y-37026190D01*
X47195238Y-37002380D01*
X47171428Y-36954761D01*
X47171428Y-36764285D01*
X47195238Y-36716666D01*
X47242857Y-36692857D01*
X47338095Y-36692857D01*
X47385714Y-36716666D01*
X47409523Y-36764285D01*
X47409523Y-36811904D01*
X47171428Y-36859523D01*
X47600000Y-37002380D02*
X47647619Y-37026190D01*
X47742857Y-37026190D01*
X47790476Y-37002380D01*
X47814285Y-36954761D01*
X47814285Y-36930952D01*
X47790476Y-36883333D01*
X47742857Y-36859523D01*
X47671428Y-36859523D01*
X47623809Y-36835714D01*
X47600000Y-36788095D01*
X47600000Y-36764285D01*
X47623809Y-36716666D01*
X47671428Y-36692857D01*
X47742857Y-36692857D01*
X47790476Y-36716666D01*
X48219047Y-37002380D02*
X48171428Y-37026190D01*
X48076190Y-37026190D01*
X48028571Y-37002380D01*
X48004761Y-36954761D01*
X48004761Y-36764285D01*
X48028571Y-36716666D01*
X48076190Y-36692857D01*
X48171428Y-36692857D01*
X48219047Y-36716666D01*
X48242857Y-36764285D01*
X48242857Y-36811904D01*
X48004761Y-36859523D01*
X48385714Y-36692857D02*
X48576190Y-36692857D01*
X48457142Y-36526190D02*
X48457142Y-36954761D01*
X48480952Y-37002380D01*
X48528571Y-37026190D01*
X48576190Y-37026190D01*
D11*
X46821428Y-39139285D02*
X46821428Y-38389285D01*
X47071428Y-38925000D01*
X47321428Y-38389285D01*
X47321428Y-39139285D01*
X47821428Y-38389285D02*
X47964285Y-38389285D01*
X48035714Y-38425000D01*
X48107142Y-38496428D01*
X48142857Y-38639285D01*
X48142857Y-38889285D01*
X48107142Y-39032142D01*
X48035714Y-39103571D01*
X47964285Y-39139285D01*
X47821428Y-39139285D01*
X47750000Y-39103571D01*
X47678571Y-39032142D01*
X47642857Y-38889285D01*
X47642857Y-38639285D01*
X47678571Y-38496428D01*
X47750000Y-38425000D01*
X47821428Y-38389285D01*
X48428571Y-39103571D02*
X48535714Y-39139285D01*
X48714285Y-39139285D01*
X48785714Y-39103571D01*
X48821428Y-39067857D01*
X48857142Y-38996428D01*
X48857142Y-38925000D01*
X48821428Y-38853571D01*
X48785714Y-38817857D01*
X48714285Y-38782142D01*
X48571428Y-38746428D01*
X48500000Y-38710714D01*
X48464285Y-38675000D01*
X48428571Y-38603571D01*
X48428571Y-38532142D01*
X48464285Y-38460714D01*
X48500000Y-38425000D01*
X48571428Y-38389285D01*
X48750000Y-38389285D01*
X48857142Y-38425000D01*
X49178571Y-39139285D02*
X49178571Y-38389285D01*
X46732142Y-41103571D02*
X46839285Y-41139285D01*
X47017857Y-41139285D01*
X47089285Y-41103571D01*
X47125000Y-41067857D01*
X47160714Y-40996428D01*
X47160714Y-40925000D01*
X47125000Y-40853571D01*
X47089285Y-40817857D01*
X47017857Y-40782142D01*
X46875000Y-40746428D01*
X46803571Y-40710714D01*
X46767857Y-40675000D01*
X46732142Y-40603571D01*
X46732142Y-40532142D01*
X46767857Y-40460714D01*
X46803571Y-40425000D01*
X46875000Y-40389285D01*
X47053571Y-40389285D01*
X47160714Y-40425000D01*
X47910714Y-41067857D02*
X47875000Y-41103571D01*
X47767857Y-41139285D01*
X47696428Y-41139285D01*
X47589285Y-41103571D01*
X47517857Y-41032142D01*
X47482142Y-40960714D01*
X47446428Y-40817857D01*
X47446428Y-40710714D01*
X47482142Y-40567857D01*
X47517857Y-40496428D01*
X47589285Y-40425000D01*
X47696428Y-40389285D01*
X47767857Y-40389285D01*
X47875000Y-40425000D01*
X47910714Y-40460714D01*
X48589285Y-41139285D02*
X48232142Y-41139285D01*
X48232142Y-40389285D01*
X48839285Y-41139285D02*
X48839285Y-40389285D01*
X49267857Y-41139285D02*
X48946428Y-40710714D01*
X49267857Y-40389285D02*
X48839285Y-40817857D01*
X40421428Y-41139285D02*
X40421428Y-40389285D01*
X40671428Y-40925000D01*
X40921428Y-40389285D01*
X40921428Y-41139285D01*
X41278571Y-41139285D02*
X41278571Y-40389285D01*
X41600000Y-41103571D02*
X41707142Y-41139285D01*
X41885714Y-41139285D01*
X41957142Y-41103571D01*
X41992857Y-41067857D01*
X42028571Y-40996428D01*
X42028571Y-40925000D01*
X41992857Y-40853571D01*
X41957142Y-40817857D01*
X41885714Y-40782142D01*
X41742857Y-40746428D01*
X41671428Y-40710714D01*
X41635714Y-40675000D01*
X41600000Y-40603571D01*
X41600000Y-40532142D01*
X41635714Y-40460714D01*
X41671428Y-40425000D01*
X41742857Y-40389285D01*
X41921428Y-40389285D01*
X42028571Y-40425000D01*
X42492857Y-40389285D02*
X42635714Y-40389285D01*
X42707142Y-40425000D01*
X42778571Y-40496428D01*
X42814285Y-40639285D01*
X42814285Y-40889285D01*
X42778571Y-41032142D01*
X42707142Y-41103571D01*
X42635714Y-41139285D01*
X42492857Y-41139285D01*
X42421428Y-41103571D01*
X42350000Y-41032142D01*
X42314285Y-40889285D01*
X42314285Y-40639285D01*
X42350000Y-40496428D01*
X42421428Y-40425000D01*
X42492857Y-40389285D01*
D12*
X41228571Y-38425000D02*
X41157142Y-38389285D01*
X41050000Y-38389285D01*
X40942857Y-38425000D01*
X40871428Y-38496428D01*
X40835714Y-38567857D01*
X40800000Y-38710714D01*
X40800000Y-38817857D01*
X40835714Y-38960714D01*
X40871428Y-39032142D01*
X40942857Y-39103571D01*
X41050000Y-39139285D01*
X41121428Y-39139285D01*
X41228571Y-39103571D01*
X41264285Y-39067857D01*
X41264285Y-38817857D01*
X41121428Y-38817857D01*
X41585714Y-39139285D02*
X41585714Y-38389285D01*
X42014285Y-39139285D01*
X42014285Y-38389285D01*
X42371428Y-39139285D02*
X42371428Y-38389285D01*
X42550000Y-38389285D01*
X42657142Y-38425000D01*
X42728571Y-38496428D01*
X42764285Y-38567857D01*
X42800000Y-38710714D01*
X42800000Y-38817857D01*
X42764285Y-38960714D01*
X42728571Y-39032142D01*
X42657142Y-39103571D01*
X42550000Y-39139285D01*
X42371428Y-39139285D01*
D13*
X40966666Y-36816666D02*
X41200000Y-37516666D01*
X41433333Y-36816666D01*
X41966666Y-37483333D02*
X41900000Y-37516666D01*
X41766666Y-37516666D01*
X41700000Y-37483333D01*
X41666666Y-37450000D01*
X41633333Y-37383333D01*
X41633333Y-37183333D01*
X41666666Y-37116666D01*
X41700000Y-37083333D01*
X41766666Y-37050000D01*
X41900000Y-37050000D01*
X41966666Y-37083333D01*
X42566666Y-37483333D02*
X42500000Y-37516666D01*
X42366666Y-37516666D01*
X42300000Y-37483333D01*
X42266666Y-37450000D01*
X42233333Y-37383333D01*
X42233333Y-37183333D01*
X42266666Y-37116666D01*
X42300000Y-37083333D01*
X42366666Y-37050000D01*
X42500000Y-37050000D01*
X42566666Y-37083333D01*
D11*
G04 #@! TO.C,J_OLED1*
X92195000Y-44328800D02*
X92195000Y-32848000D01*
X54222000Y-44328800D02*
X92171200Y-44328800D01*
X54222000Y-32848000D02*
X54222000Y-44328800D01*
X92171600Y-32848000D02*
X54222000Y-32848000D01*
X57270000Y-43770000D02*
X54730000Y-43770000D01*
X54730000Y-33610000D02*
X57270000Y-33610000D01*
X54730000Y-43770000D02*
X54730000Y-33610000D01*
X57270000Y-43770000D02*
X57270000Y-33610000D01*
X55820590Y-43969895D02*
X55820590Y-44550466D01*
X55781885Y-44666580D01*
X55704476Y-44743990D01*
X55588361Y-44782695D01*
X55510952Y-44782695D01*
X56014114Y-44860104D02*
X56633390Y-44860104D01*
X56981733Y-43969895D02*
X57136552Y-43969895D01*
X57213961Y-44008600D01*
X57291371Y-44086009D01*
X57330076Y-44240828D01*
X57330076Y-44511761D01*
X57291371Y-44666580D01*
X57213961Y-44743990D01*
X57136552Y-44782695D01*
X56981733Y-44782695D01*
X56904323Y-44743990D01*
X56826914Y-44666580D01*
X56788209Y-44511761D01*
X56788209Y-44240828D01*
X56826914Y-44086009D01*
X56904323Y-44008600D01*
X56981733Y-43969895D01*
X58065466Y-44782695D02*
X57678419Y-44782695D01*
X57678419Y-43969895D01*
X58336400Y-44356942D02*
X58607333Y-44356942D01*
X58723447Y-44782695D02*
X58336400Y-44782695D01*
X58336400Y-43969895D01*
X58723447Y-43969895D01*
X59071790Y-44782695D02*
X59071790Y-43969895D01*
X59265314Y-43969895D01*
X59381428Y-44008600D01*
X59458838Y-44086009D01*
X59497542Y-44163419D01*
X59536247Y-44318238D01*
X59536247Y-44434352D01*
X59497542Y-44589171D01*
X59458838Y-44666580D01*
X59381428Y-44743990D01*
X59265314Y-44782695D01*
X59071790Y-44782695D01*
X60310342Y-44782695D02*
X59845885Y-44782695D01*
X60078114Y-44782695D02*
X60078114Y-43969895D01*
X60000704Y-44086009D01*
X59923295Y-44163419D01*
X59845885Y-44202123D01*
G04 #@! TO.C,*
G04 #@! TO.C,REF\002A\002A*
X50657046Y-21292800D02*
X50323713Y-20816610D01*
X50085618Y-21292800D02*
X50085618Y-20292800D01*
X50466570Y-20292800D01*
X50561808Y-20340420D01*
X50609427Y-20388039D01*
X50657046Y-20483277D01*
X50657046Y-20626134D01*
X50609427Y-20721372D01*
X50561808Y-20768991D01*
X50466570Y-20816610D01*
X50085618Y-20816610D01*
X51085618Y-20768991D02*
X51418951Y-20768991D01*
X51561808Y-21292800D02*
X51085618Y-21292800D01*
X51085618Y-20292800D01*
X51561808Y-20292800D01*
X52323713Y-20768991D02*
X51990380Y-20768991D01*
X51990380Y-21292800D02*
X51990380Y-20292800D01*
X52466570Y-20292800D01*
X52990380Y-20292800D02*
X52990380Y-20530896D01*
X52752284Y-20435658D02*
X52990380Y-20530896D01*
X53228475Y-20435658D01*
X52847522Y-20721372D02*
X52990380Y-20530896D01*
X53133237Y-20721372D01*
X53752284Y-20292800D02*
X53752284Y-20530896D01*
X53514189Y-20435658D02*
X53752284Y-20530896D01*
X53990380Y-20435658D01*
X53609427Y-20721372D02*
X53752284Y-20530896D01*
X53895141Y-20721372D01*
G04 #@! TD*
M02*
