G04 #@! TF.GenerationSoftware,KiCad,Pcbnew,(5.0.2)-1*
G04 #@! TF.CreationDate,2019-10-12T18:51:29+05:30*
G04 #@! TF.ProjectId,steambud_htswp,73746561-6d62-4756-945f-68747377702e,rev?*
G04 #@! TF.SameCoordinates,Original*
G04 #@! TF.FileFunction,Soldermask,Top*
G04 #@! TF.FilePolarity,Negative*
%FSLAX46Y46*%
G04 Gerber Fmt 4.6, Leading zero omitted, Abs format (unit mm)*
G04 Created by KiCad (PCBNEW (5.0.2)-1) date 10/12/2019 6:51:29 PM*
%MOMM*%
%LPD*%
G01*
G04 APERTURE LIST*
%ADD10C,0.100000*%
G04 APERTURE END LIST*
D10*
G36*
X48221472Y-112333684D02*
X48221474Y-112333685D01*
X48221475Y-112333685D01*
X48593623Y-112487833D01*
X48928548Y-112711623D01*
X49213377Y-112996452D01*
X49437167Y-113331377D01*
X49507322Y-113500747D01*
X49591316Y-113703528D01*
X49669900Y-114098594D01*
X49669900Y-114501406D01*
X49595601Y-114874931D01*
X49591315Y-114896475D01*
X49437167Y-115268623D01*
X49213377Y-115603548D01*
X48928548Y-115888377D01*
X48593623Y-116112167D01*
X48221475Y-116266315D01*
X48221474Y-116266315D01*
X48221472Y-116266316D01*
X47826406Y-116344900D01*
X47423594Y-116344900D01*
X47028528Y-116266316D01*
X47028526Y-116266315D01*
X47028525Y-116266315D01*
X46656377Y-116112167D01*
X46321452Y-115888377D01*
X46036623Y-115603548D01*
X45812833Y-115268623D01*
X45658685Y-114896475D01*
X45654400Y-114874931D01*
X45580100Y-114501406D01*
X45580100Y-114098594D01*
X45658684Y-113703528D01*
X45742678Y-113500747D01*
X45812833Y-113331377D01*
X46036623Y-112996452D01*
X46321452Y-112711623D01*
X46656377Y-112487833D01*
X47028525Y-112333685D01*
X47028526Y-112333685D01*
X47028528Y-112333684D01*
X47423594Y-112255100D01*
X47826406Y-112255100D01*
X48221472Y-112333684D01*
X48221472Y-112333684D01*
G37*
G36*
X86321472Y-112333684D02*
X86321474Y-112333685D01*
X86321475Y-112333685D01*
X86693623Y-112487833D01*
X87028548Y-112711623D01*
X87313377Y-112996452D01*
X87537167Y-113331377D01*
X87607322Y-113500747D01*
X87691316Y-113703528D01*
X87769900Y-114098594D01*
X87769900Y-114501406D01*
X87695601Y-114874931D01*
X87691315Y-114896475D01*
X87537167Y-115268623D01*
X87313377Y-115603548D01*
X87028548Y-115888377D01*
X86693623Y-116112167D01*
X86321475Y-116266315D01*
X86321474Y-116266315D01*
X86321472Y-116266316D01*
X85926406Y-116344900D01*
X85523594Y-116344900D01*
X85128528Y-116266316D01*
X85128526Y-116266315D01*
X85128525Y-116266315D01*
X84756377Y-116112167D01*
X84421452Y-115888377D01*
X84136623Y-115603548D01*
X83912833Y-115268623D01*
X83758685Y-114896475D01*
X83754400Y-114874931D01*
X83680100Y-114501406D01*
X83680100Y-114098594D01*
X83758684Y-113703528D01*
X83842678Y-113500747D01*
X83912833Y-113331377D01*
X84136623Y-112996452D01*
X84421452Y-112711623D01*
X84756377Y-112487833D01*
X85128525Y-112333685D01*
X85128526Y-112333685D01*
X85128528Y-112333684D01*
X85523594Y-112255100D01*
X85926406Y-112255100D01*
X86321472Y-112333684D01*
X86321472Y-112333684D01*
G37*
G36*
X105371472Y-112333684D02*
X105371474Y-112333685D01*
X105371475Y-112333685D01*
X105743623Y-112487833D01*
X106078548Y-112711623D01*
X106363377Y-112996452D01*
X106587167Y-113331377D01*
X106657322Y-113500747D01*
X106741316Y-113703528D01*
X106819900Y-114098594D01*
X106819900Y-114501406D01*
X106745601Y-114874931D01*
X106741315Y-114896475D01*
X106587167Y-115268623D01*
X106363377Y-115603548D01*
X106078548Y-115888377D01*
X105743623Y-116112167D01*
X105371475Y-116266315D01*
X105371474Y-116266315D01*
X105371472Y-116266316D01*
X104976406Y-116344900D01*
X104573594Y-116344900D01*
X104178528Y-116266316D01*
X104178526Y-116266315D01*
X104178525Y-116266315D01*
X103806377Y-116112167D01*
X103471452Y-115888377D01*
X103186623Y-115603548D01*
X102962833Y-115268623D01*
X102808685Y-114896475D01*
X102804400Y-114874931D01*
X102730100Y-114501406D01*
X102730100Y-114098594D01*
X102808684Y-113703528D01*
X102892678Y-113500747D01*
X102962833Y-113331377D01*
X103186623Y-112996452D01*
X103471452Y-112711623D01*
X103806377Y-112487833D01*
X104178525Y-112333685D01*
X104178526Y-112333685D01*
X104178528Y-112333684D01*
X104573594Y-112255100D01*
X104976406Y-112255100D01*
X105371472Y-112333684D01*
X105371472Y-112333684D01*
G37*
G36*
X67271472Y-112333684D02*
X67271474Y-112333685D01*
X67271475Y-112333685D01*
X67643623Y-112487833D01*
X67978548Y-112711623D01*
X68263377Y-112996452D01*
X68487167Y-113331377D01*
X68557322Y-113500747D01*
X68641316Y-113703528D01*
X68719900Y-114098594D01*
X68719900Y-114501406D01*
X68645601Y-114874931D01*
X68641315Y-114896475D01*
X68487167Y-115268623D01*
X68263377Y-115603548D01*
X67978548Y-115888377D01*
X67643623Y-116112167D01*
X67271475Y-116266315D01*
X67271474Y-116266315D01*
X67271472Y-116266316D01*
X66876406Y-116344900D01*
X66473594Y-116344900D01*
X66078528Y-116266316D01*
X66078526Y-116266315D01*
X66078525Y-116266315D01*
X65706377Y-116112167D01*
X65371452Y-115888377D01*
X65086623Y-115603548D01*
X64862833Y-115268623D01*
X64708685Y-114896475D01*
X64704400Y-114874931D01*
X64630100Y-114501406D01*
X64630100Y-114098594D01*
X64708684Y-113703528D01*
X64792678Y-113500747D01*
X64862833Y-113331377D01*
X65086623Y-112996452D01*
X65371452Y-112711623D01*
X65706377Y-112487833D01*
X66078525Y-112333685D01*
X66078526Y-112333685D01*
X66078528Y-112333684D01*
X66473594Y-112255100D01*
X66876406Y-112255100D01*
X67271472Y-112333684D01*
X67271472Y-112333684D01*
G37*
G36*
X80849993Y-113421206D02*
X80908075Y-113432759D01*
X80956149Y-113452672D01*
X81072210Y-113500746D01*
X81219931Y-113599450D01*
X81345550Y-113725069D01*
X81444254Y-113872790D01*
X81512241Y-114036926D01*
X81546900Y-114211169D01*
X81546900Y-114388831D01*
X81512241Y-114563074D01*
X81444254Y-114727210D01*
X81345550Y-114874931D01*
X81219931Y-115000550D01*
X81072210Y-115099254D01*
X80956149Y-115147328D01*
X80908075Y-115167241D01*
X80849993Y-115178794D01*
X80733831Y-115201900D01*
X80556169Y-115201900D01*
X80440007Y-115178794D01*
X80381925Y-115167241D01*
X80333851Y-115147328D01*
X80217790Y-115099254D01*
X80070069Y-115000550D01*
X79944450Y-114874931D01*
X79845746Y-114727210D01*
X79777759Y-114563074D01*
X79743100Y-114388831D01*
X79743100Y-114211169D01*
X79777759Y-114036926D01*
X79845746Y-113872790D01*
X79944450Y-113725069D01*
X80070069Y-113599450D01*
X80217790Y-113500746D01*
X80333851Y-113452672D01*
X80381925Y-113432759D01*
X80440007Y-113421206D01*
X80556169Y-113398100D01*
X80733831Y-113398100D01*
X80849993Y-113421206D01*
X80849993Y-113421206D01*
G37*
G36*
X52909993Y-113421206D02*
X52968075Y-113432759D01*
X53016149Y-113452672D01*
X53132210Y-113500746D01*
X53279931Y-113599450D01*
X53405550Y-113725069D01*
X53504254Y-113872790D01*
X53572241Y-114036926D01*
X53606900Y-114211169D01*
X53606900Y-114388831D01*
X53572241Y-114563074D01*
X53504254Y-114727210D01*
X53405550Y-114874931D01*
X53279931Y-115000550D01*
X53132210Y-115099254D01*
X53016149Y-115147328D01*
X52968075Y-115167241D01*
X52909993Y-115178794D01*
X52793831Y-115201900D01*
X52616169Y-115201900D01*
X52500007Y-115178794D01*
X52441925Y-115167241D01*
X52393851Y-115147328D01*
X52277790Y-115099254D01*
X52130069Y-115000550D01*
X52004450Y-114874931D01*
X51905746Y-114727210D01*
X51837759Y-114563074D01*
X51803100Y-114388831D01*
X51803100Y-114211169D01*
X51837759Y-114036926D01*
X51905746Y-113872790D01*
X52004450Y-113725069D01*
X52130069Y-113599450D01*
X52277790Y-113500746D01*
X52393851Y-113452672D01*
X52441925Y-113432759D01*
X52500007Y-113421206D01*
X52616169Y-113398100D01*
X52793831Y-113398100D01*
X52909993Y-113421206D01*
X52909993Y-113421206D01*
G37*
G36*
X42749993Y-113421206D02*
X42808075Y-113432759D01*
X42856149Y-113452672D01*
X42972210Y-113500746D01*
X43119931Y-113599450D01*
X43245550Y-113725069D01*
X43344254Y-113872790D01*
X43412241Y-114036926D01*
X43446900Y-114211169D01*
X43446900Y-114388831D01*
X43412241Y-114563074D01*
X43344254Y-114727210D01*
X43245550Y-114874931D01*
X43119931Y-115000550D01*
X42972210Y-115099254D01*
X42856149Y-115147328D01*
X42808075Y-115167241D01*
X42749993Y-115178794D01*
X42633831Y-115201900D01*
X42456169Y-115201900D01*
X42340007Y-115178794D01*
X42281925Y-115167241D01*
X42233851Y-115147328D01*
X42117790Y-115099254D01*
X41970069Y-115000550D01*
X41844450Y-114874931D01*
X41745746Y-114727210D01*
X41677759Y-114563074D01*
X41643100Y-114388831D01*
X41643100Y-114211169D01*
X41677759Y-114036926D01*
X41745746Y-113872790D01*
X41844450Y-113725069D01*
X41970069Y-113599450D01*
X42117790Y-113500746D01*
X42233851Y-113452672D01*
X42281925Y-113432759D01*
X42340007Y-113421206D01*
X42456169Y-113398100D01*
X42633831Y-113398100D01*
X42749993Y-113421206D01*
X42749993Y-113421206D01*
G37*
G36*
X61799993Y-113421206D02*
X61858075Y-113432759D01*
X61906149Y-113452672D01*
X62022210Y-113500746D01*
X62169931Y-113599450D01*
X62295550Y-113725069D01*
X62394254Y-113872790D01*
X62462241Y-114036926D01*
X62496900Y-114211169D01*
X62496900Y-114388831D01*
X62462241Y-114563074D01*
X62394254Y-114727210D01*
X62295550Y-114874931D01*
X62169931Y-115000550D01*
X62022210Y-115099254D01*
X61906149Y-115147328D01*
X61858075Y-115167241D01*
X61799993Y-115178794D01*
X61683831Y-115201900D01*
X61506169Y-115201900D01*
X61390007Y-115178794D01*
X61331925Y-115167241D01*
X61283851Y-115147328D01*
X61167790Y-115099254D01*
X61020069Y-115000550D01*
X60894450Y-114874931D01*
X60795746Y-114727210D01*
X60727759Y-114563074D01*
X60693100Y-114388831D01*
X60693100Y-114211169D01*
X60727759Y-114036926D01*
X60795746Y-113872790D01*
X60894450Y-113725069D01*
X61020069Y-113599450D01*
X61167790Y-113500746D01*
X61283851Y-113452672D01*
X61331925Y-113432759D01*
X61390007Y-113421206D01*
X61506169Y-113398100D01*
X61683831Y-113398100D01*
X61799993Y-113421206D01*
X61799993Y-113421206D01*
G37*
G36*
X71959993Y-113421206D02*
X72018075Y-113432759D01*
X72066149Y-113452672D01*
X72182210Y-113500746D01*
X72329931Y-113599450D01*
X72455550Y-113725069D01*
X72554254Y-113872790D01*
X72622241Y-114036926D01*
X72656900Y-114211169D01*
X72656900Y-114388831D01*
X72622241Y-114563074D01*
X72554254Y-114727210D01*
X72455550Y-114874931D01*
X72329931Y-115000550D01*
X72182210Y-115099254D01*
X72066149Y-115147328D01*
X72018075Y-115167241D01*
X71959993Y-115178794D01*
X71843831Y-115201900D01*
X71666169Y-115201900D01*
X71550007Y-115178794D01*
X71491925Y-115167241D01*
X71443851Y-115147328D01*
X71327790Y-115099254D01*
X71180069Y-115000550D01*
X71054450Y-114874931D01*
X70955746Y-114727210D01*
X70887759Y-114563074D01*
X70853100Y-114388831D01*
X70853100Y-114211169D01*
X70887759Y-114036926D01*
X70955746Y-113872790D01*
X71054450Y-113725069D01*
X71180069Y-113599450D01*
X71327790Y-113500746D01*
X71443851Y-113452672D01*
X71491925Y-113432759D01*
X71550007Y-113421206D01*
X71666169Y-113398100D01*
X71843831Y-113398100D01*
X71959993Y-113421206D01*
X71959993Y-113421206D01*
G37*
G36*
X91009993Y-113421206D02*
X91068075Y-113432759D01*
X91116149Y-113452672D01*
X91232210Y-113500746D01*
X91379931Y-113599450D01*
X91505550Y-113725069D01*
X91604254Y-113872790D01*
X91672241Y-114036926D01*
X91706900Y-114211169D01*
X91706900Y-114388831D01*
X91672241Y-114563074D01*
X91604254Y-114727210D01*
X91505550Y-114874931D01*
X91379931Y-115000550D01*
X91232210Y-115099254D01*
X91116149Y-115147328D01*
X91068075Y-115167241D01*
X91009993Y-115178794D01*
X90893831Y-115201900D01*
X90716169Y-115201900D01*
X90600007Y-115178794D01*
X90541925Y-115167241D01*
X90493851Y-115147328D01*
X90377790Y-115099254D01*
X90230069Y-115000550D01*
X90104450Y-114874931D01*
X90005746Y-114727210D01*
X89937759Y-114563074D01*
X89903100Y-114388831D01*
X89903100Y-114211169D01*
X89937759Y-114036926D01*
X90005746Y-113872790D01*
X90104450Y-113725069D01*
X90230069Y-113599450D01*
X90377790Y-113500746D01*
X90493851Y-113452672D01*
X90541925Y-113432759D01*
X90600007Y-113421206D01*
X90716169Y-113398100D01*
X90893831Y-113398100D01*
X91009993Y-113421206D01*
X91009993Y-113421206D01*
G37*
G36*
X110059993Y-113421206D02*
X110118075Y-113432759D01*
X110166149Y-113452672D01*
X110282210Y-113500746D01*
X110429931Y-113599450D01*
X110555550Y-113725069D01*
X110654254Y-113872790D01*
X110722241Y-114036926D01*
X110756900Y-114211169D01*
X110756900Y-114388831D01*
X110722241Y-114563074D01*
X110654254Y-114727210D01*
X110555550Y-114874931D01*
X110429931Y-115000550D01*
X110282210Y-115099254D01*
X110166149Y-115147328D01*
X110118075Y-115167241D01*
X110059993Y-115178794D01*
X109943831Y-115201900D01*
X109766169Y-115201900D01*
X109650007Y-115178794D01*
X109591925Y-115167241D01*
X109543851Y-115147328D01*
X109427790Y-115099254D01*
X109280069Y-115000550D01*
X109154450Y-114874931D01*
X109055746Y-114727210D01*
X108987759Y-114563074D01*
X108953100Y-114388831D01*
X108953100Y-114211169D01*
X108987759Y-114036926D01*
X109055746Y-113872790D01*
X109154450Y-113725069D01*
X109280069Y-113599450D01*
X109427790Y-113500746D01*
X109543851Y-113452672D01*
X109591925Y-113432759D01*
X109650007Y-113421206D01*
X109766169Y-113398100D01*
X109943831Y-113398100D01*
X110059993Y-113421206D01*
X110059993Y-113421206D01*
G37*
G36*
X99899993Y-113421206D02*
X99958075Y-113432759D01*
X100006149Y-113452672D01*
X100122210Y-113500746D01*
X100269931Y-113599450D01*
X100395550Y-113725069D01*
X100494254Y-113872790D01*
X100562241Y-114036926D01*
X100596900Y-114211169D01*
X100596900Y-114388831D01*
X100562241Y-114563074D01*
X100494254Y-114727210D01*
X100395550Y-114874931D01*
X100269931Y-115000550D01*
X100122210Y-115099254D01*
X100006149Y-115147328D01*
X99958075Y-115167241D01*
X99899993Y-115178794D01*
X99783831Y-115201900D01*
X99606169Y-115201900D01*
X99490007Y-115178794D01*
X99431925Y-115167241D01*
X99383851Y-115147328D01*
X99267790Y-115099254D01*
X99120069Y-115000550D01*
X98994450Y-114874931D01*
X98895746Y-114727210D01*
X98827759Y-114563074D01*
X98793100Y-114388831D01*
X98793100Y-114211169D01*
X98827759Y-114036926D01*
X98895746Y-113872790D01*
X98994450Y-113725069D01*
X99120069Y-113599450D01*
X99267790Y-113500746D01*
X99383851Y-113452672D01*
X99431925Y-113432759D01*
X99490007Y-113421206D01*
X99606169Y-113398100D01*
X99783831Y-113398100D01*
X99899993Y-113421206D01*
X99899993Y-113421206D01*
G37*
G36*
X45204809Y-108921734D02*
X45293112Y-108924238D01*
X45370990Y-108942039D01*
X45562145Y-108985732D01*
X45658199Y-109028749D01*
X45814014Y-109098530D01*
X46039037Y-109258298D01*
X46039041Y-109258301D01*
X46228566Y-109458894D01*
X46375321Y-109692613D01*
X46421576Y-109813904D01*
X46473659Y-109950472D01*
X46489039Y-110041168D01*
X46519802Y-110222558D01*
X46514796Y-110399000D01*
X46511976Y-110498421D01*
X46511975Y-110498424D01*
X46450482Y-110767454D01*
X46450481Y-110767456D01*
X46337684Y-111019324D01*
X46291944Y-111083745D01*
X46217950Y-111187961D01*
X44946743Y-112650318D01*
X44803208Y-112785934D01*
X44796413Y-112792354D01*
X44709448Y-112846960D01*
X44562695Y-112939107D01*
X44304835Y-113037446D01*
X44032753Y-113083588D01*
X43896991Y-113079736D01*
X43756888Y-113075762D01*
X43716348Y-113066495D01*
X43487854Y-113014269D01*
X43281630Y-112921912D01*
X43235985Y-112901470D01*
X43010962Y-112741702D01*
X43010959Y-112741700D01*
X42821433Y-112541106D01*
X42674679Y-112307387D01*
X42576340Y-112049527D01*
X42530198Y-111777445D01*
X42535204Y-111601000D01*
X42538024Y-111501580D01*
X42549144Y-111452931D01*
X42599517Y-111232546D01*
X42712315Y-110980680D01*
X42712316Y-110980677D01*
X42832050Y-110812039D01*
X42947275Y-110679488D01*
X43607041Y-109920512D01*
X44103252Y-109349686D01*
X44103256Y-109349682D01*
X44253584Y-109207648D01*
X44487304Y-109060893D01*
X44595586Y-109019599D01*
X44745162Y-108962555D01*
X44835858Y-108947175D01*
X45017248Y-108916412D01*
X45204809Y-108921734D01*
X45204809Y-108921734D01*
G37*
G36*
X64254809Y-108921734D02*
X64343112Y-108924238D01*
X64420990Y-108942039D01*
X64612145Y-108985732D01*
X64708199Y-109028749D01*
X64864014Y-109098530D01*
X65089037Y-109258298D01*
X65089041Y-109258301D01*
X65278566Y-109458894D01*
X65425321Y-109692613D01*
X65471576Y-109813904D01*
X65523659Y-109950472D01*
X65539039Y-110041168D01*
X65569802Y-110222558D01*
X65564796Y-110399000D01*
X65561976Y-110498421D01*
X65561975Y-110498424D01*
X65500482Y-110767454D01*
X65500481Y-110767456D01*
X65387684Y-111019324D01*
X65341944Y-111083745D01*
X65267950Y-111187961D01*
X63996743Y-112650318D01*
X63853208Y-112785934D01*
X63846413Y-112792354D01*
X63759448Y-112846960D01*
X63612695Y-112939107D01*
X63354835Y-113037446D01*
X63082753Y-113083588D01*
X62946991Y-113079736D01*
X62806888Y-113075762D01*
X62766348Y-113066495D01*
X62537854Y-113014269D01*
X62331630Y-112921912D01*
X62285985Y-112901470D01*
X62060962Y-112741702D01*
X62060959Y-112741700D01*
X61871433Y-112541106D01*
X61724679Y-112307387D01*
X61626340Y-112049527D01*
X61580198Y-111777445D01*
X61585204Y-111601000D01*
X61588024Y-111501580D01*
X61599144Y-111452931D01*
X61649517Y-111232546D01*
X61762315Y-110980680D01*
X61762316Y-110980677D01*
X61882050Y-110812039D01*
X61997275Y-110679488D01*
X62657041Y-109920512D01*
X63153252Y-109349686D01*
X63153256Y-109349682D01*
X63303584Y-109207648D01*
X63537304Y-109060893D01*
X63645586Y-109019599D01*
X63795162Y-108962555D01*
X63885858Y-108947175D01*
X64067248Y-108916412D01*
X64254809Y-108921734D01*
X64254809Y-108921734D01*
G37*
G36*
X83304809Y-108921734D02*
X83393112Y-108924238D01*
X83470990Y-108942039D01*
X83662145Y-108985732D01*
X83758199Y-109028749D01*
X83914014Y-109098530D01*
X84139037Y-109258298D01*
X84139041Y-109258301D01*
X84328566Y-109458894D01*
X84475321Y-109692613D01*
X84521576Y-109813904D01*
X84573659Y-109950472D01*
X84589039Y-110041168D01*
X84619802Y-110222558D01*
X84614796Y-110399000D01*
X84611976Y-110498421D01*
X84611975Y-110498424D01*
X84550482Y-110767454D01*
X84550481Y-110767456D01*
X84437684Y-111019324D01*
X84391944Y-111083745D01*
X84317950Y-111187961D01*
X83046743Y-112650318D01*
X82903208Y-112785934D01*
X82896413Y-112792354D01*
X82809448Y-112846960D01*
X82662695Y-112939107D01*
X82404835Y-113037446D01*
X82132753Y-113083588D01*
X81996991Y-113079736D01*
X81856888Y-113075762D01*
X81816348Y-113066495D01*
X81587854Y-113014269D01*
X81381630Y-112921912D01*
X81335985Y-112901470D01*
X81110962Y-112741702D01*
X81110959Y-112741700D01*
X80921433Y-112541106D01*
X80774679Y-112307387D01*
X80676340Y-112049527D01*
X80630198Y-111777445D01*
X80635204Y-111601000D01*
X80638024Y-111501580D01*
X80649144Y-111452931D01*
X80699517Y-111232546D01*
X80812315Y-110980680D01*
X80812316Y-110980677D01*
X80932050Y-110812039D01*
X81047275Y-110679488D01*
X81707041Y-109920512D01*
X82203252Y-109349686D01*
X82203256Y-109349682D01*
X82353584Y-109207648D01*
X82587304Y-109060893D01*
X82695586Y-109019599D01*
X82845162Y-108962555D01*
X82935858Y-108947175D01*
X83117248Y-108916412D01*
X83304809Y-108921734D01*
X83304809Y-108921734D01*
G37*
G36*
X102354809Y-108921734D02*
X102443112Y-108924238D01*
X102520990Y-108942039D01*
X102712145Y-108985732D01*
X102808199Y-109028749D01*
X102964014Y-109098530D01*
X103189037Y-109258298D01*
X103189041Y-109258301D01*
X103378566Y-109458894D01*
X103525321Y-109692613D01*
X103571576Y-109813904D01*
X103623659Y-109950472D01*
X103639039Y-110041168D01*
X103669802Y-110222558D01*
X103664796Y-110399000D01*
X103661976Y-110498421D01*
X103661975Y-110498424D01*
X103600482Y-110767454D01*
X103600481Y-110767456D01*
X103487684Y-111019324D01*
X103441944Y-111083745D01*
X103367950Y-111187961D01*
X102096743Y-112650318D01*
X101953208Y-112785934D01*
X101946413Y-112792354D01*
X101859448Y-112846960D01*
X101712695Y-112939107D01*
X101454835Y-113037446D01*
X101182753Y-113083588D01*
X101046991Y-113079736D01*
X100906888Y-113075762D01*
X100866348Y-113066495D01*
X100637854Y-113014269D01*
X100431630Y-112921912D01*
X100385985Y-112901470D01*
X100160962Y-112741702D01*
X100160959Y-112741700D01*
X99971433Y-112541106D01*
X99824679Y-112307387D01*
X99726340Y-112049527D01*
X99680198Y-111777445D01*
X99685204Y-111601000D01*
X99688024Y-111501580D01*
X99699144Y-111452931D01*
X99749517Y-111232546D01*
X99862315Y-110980680D01*
X99862316Y-110980677D01*
X99982050Y-110812039D01*
X100097275Y-110679488D01*
X100757041Y-109920512D01*
X101253252Y-109349686D01*
X101253256Y-109349682D01*
X101403584Y-109207648D01*
X101637304Y-109060893D01*
X101745586Y-109019599D01*
X101895162Y-108962555D01*
X101985858Y-108947175D01*
X102167248Y-108916412D01*
X102354809Y-108921734D01*
X102354809Y-108921734D01*
G37*
G36*
X50380040Y-107967825D02*
X50625280Y-108042218D01*
X50625282Y-108042219D01*
X50851296Y-108163026D01*
X51049397Y-108325603D01*
X51211976Y-108523706D01*
X51332780Y-108749716D01*
X51332781Y-108749719D01*
X51332782Y-108749721D01*
X51407175Y-108994961D01*
X51426000Y-109186096D01*
X51426000Y-109813905D01*
X51407175Y-110005040D01*
X51332782Y-110250280D01*
X51211976Y-110476293D01*
X51211974Y-110476295D01*
X51049396Y-110674397D01*
X50851295Y-110836974D01*
X50851293Y-110836975D01*
X50625279Y-110957782D01*
X50380039Y-111032175D01*
X50125000Y-111057294D01*
X49869960Y-111032175D01*
X49624720Y-110957782D01*
X49398706Y-110836975D01*
X49313995Y-110767454D01*
X49200603Y-110674396D01*
X49038026Y-110476295D01*
X48917219Y-110250281D01*
X48893431Y-110171863D01*
X48842825Y-110005039D01*
X48824000Y-109813904D01*
X48824000Y-109186095D01*
X48842825Y-108994960D01*
X48917218Y-108749720D01*
X49038025Y-108523706D01*
X49052602Y-108505944D01*
X49200604Y-108325603D01*
X49398705Y-108163026D01*
X49624719Y-108042219D01*
X49624721Y-108042218D01*
X49869961Y-107967825D01*
X50125000Y-107942706D01*
X50380040Y-107967825D01*
X50380040Y-107967825D01*
G37*
G36*
X69430040Y-107967825D02*
X69675280Y-108042218D01*
X69675282Y-108042219D01*
X69901296Y-108163026D01*
X70099397Y-108325603D01*
X70261976Y-108523706D01*
X70382780Y-108749716D01*
X70382781Y-108749719D01*
X70382782Y-108749721D01*
X70457175Y-108994961D01*
X70476000Y-109186096D01*
X70476000Y-109813905D01*
X70457175Y-110005040D01*
X70382782Y-110250280D01*
X70261976Y-110476293D01*
X70261974Y-110476295D01*
X70099396Y-110674397D01*
X69901295Y-110836974D01*
X69901293Y-110836975D01*
X69675279Y-110957782D01*
X69430039Y-111032175D01*
X69175000Y-111057294D01*
X68919960Y-111032175D01*
X68674720Y-110957782D01*
X68448706Y-110836975D01*
X68363995Y-110767454D01*
X68250603Y-110674396D01*
X68088026Y-110476295D01*
X67967219Y-110250281D01*
X67943431Y-110171863D01*
X67892825Y-110005039D01*
X67874000Y-109813904D01*
X67874000Y-109186095D01*
X67892825Y-108994960D01*
X67967218Y-108749720D01*
X68088025Y-108523706D01*
X68102602Y-108505944D01*
X68250604Y-108325603D01*
X68448705Y-108163026D01*
X68674719Y-108042219D01*
X68674721Y-108042218D01*
X68919961Y-107967825D01*
X69175000Y-107942706D01*
X69430040Y-107967825D01*
X69430040Y-107967825D01*
G37*
G36*
X88480040Y-107967825D02*
X88725280Y-108042218D01*
X88725282Y-108042219D01*
X88951296Y-108163026D01*
X89149397Y-108325603D01*
X89311976Y-108523706D01*
X89432780Y-108749716D01*
X89432781Y-108749719D01*
X89432782Y-108749721D01*
X89507175Y-108994961D01*
X89526000Y-109186096D01*
X89526000Y-109813905D01*
X89507175Y-110005040D01*
X89432782Y-110250280D01*
X89311976Y-110476293D01*
X89311974Y-110476295D01*
X89149396Y-110674397D01*
X88951295Y-110836974D01*
X88951293Y-110836975D01*
X88725279Y-110957782D01*
X88480039Y-111032175D01*
X88225000Y-111057294D01*
X87969960Y-111032175D01*
X87724720Y-110957782D01*
X87498706Y-110836975D01*
X87413995Y-110767454D01*
X87300603Y-110674396D01*
X87138026Y-110476295D01*
X87017219Y-110250281D01*
X86993431Y-110171863D01*
X86942825Y-110005039D01*
X86924000Y-109813904D01*
X86924000Y-109186095D01*
X86942825Y-108994960D01*
X87017218Y-108749720D01*
X87138025Y-108523706D01*
X87152602Y-108505944D01*
X87300604Y-108325603D01*
X87498705Y-108163026D01*
X87724719Y-108042219D01*
X87724721Y-108042218D01*
X87969961Y-107967825D01*
X88225000Y-107942706D01*
X88480040Y-107967825D01*
X88480040Y-107967825D01*
G37*
G36*
X107530040Y-107967825D02*
X107775280Y-108042218D01*
X107775282Y-108042219D01*
X108001296Y-108163026D01*
X108199397Y-108325603D01*
X108361976Y-108523706D01*
X108482780Y-108749716D01*
X108482781Y-108749719D01*
X108482782Y-108749721D01*
X108557175Y-108994961D01*
X108576000Y-109186096D01*
X108576000Y-109813905D01*
X108557175Y-110005040D01*
X108482782Y-110250280D01*
X108361976Y-110476293D01*
X108361974Y-110476295D01*
X108199396Y-110674397D01*
X108001295Y-110836974D01*
X108001293Y-110836975D01*
X107775279Y-110957782D01*
X107530039Y-111032175D01*
X107275000Y-111057294D01*
X107019960Y-111032175D01*
X106774720Y-110957782D01*
X106548706Y-110836975D01*
X106463995Y-110767454D01*
X106350603Y-110674396D01*
X106188026Y-110476295D01*
X106067219Y-110250281D01*
X106043431Y-110171863D01*
X105992825Y-110005039D01*
X105974000Y-109813904D01*
X105974000Y-109186095D01*
X105992825Y-108994960D01*
X106067218Y-108749720D01*
X106188025Y-108523706D01*
X106202602Y-108505944D01*
X106350604Y-108325603D01*
X106548705Y-108163026D01*
X106774719Y-108042219D01*
X106774721Y-108042218D01*
X107019961Y-107967825D01*
X107275000Y-107942706D01*
X107530040Y-107967825D01*
X107530040Y-107967825D01*
G37*
G36*
X86321472Y-93283684D02*
X86321474Y-93283685D01*
X86321475Y-93283685D01*
X86693623Y-93437833D01*
X87028548Y-93661623D01*
X87313377Y-93946452D01*
X87537167Y-94281377D01*
X87607322Y-94450747D01*
X87691316Y-94653528D01*
X87769900Y-95048594D01*
X87769900Y-95451406D01*
X87695601Y-95824931D01*
X87691315Y-95846475D01*
X87537167Y-96218623D01*
X87313377Y-96553548D01*
X87028548Y-96838377D01*
X86693623Y-97062167D01*
X86321475Y-97216315D01*
X86321474Y-97216315D01*
X86321472Y-97216316D01*
X85926406Y-97294900D01*
X85523594Y-97294900D01*
X85128528Y-97216316D01*
X85128526Y-97216315D01*
X85128525Y-97216315D01*
X84756377Y-97062167D01*
X84421452Y-96838377D01*
X84136623Y-96553548D01*
X83912833Y-96218623D01*
X83758685Y-95846475D01*
X83754400Y-95824931D01*
X83680100Y-95451406D01*
X83680100Y-95048594D01*
X83758684Y-94653528D01*
X83842678Y-94450747D01*
X83912833Y-94281377D01*
X84136623Y-93946452D01*
X84421452Y-93661623D01*
X84756377Y-93437833D01*
X85128525Y-93283685D01*
X85128526Y-93283685D01*
X85128528Y-93283684D01*
X85523594Y-93205100D01*
X85926406Y-93205100D01*
X86321472Y-93283684D01*
X86321472Y-93283684D01*
G37*
G36*
X67271472Y-93283684D02*
X67271474Y-93283685D01*
X67271475Y-93283685D01*
X67643623Y-93437833D01*
X67978548Y-93661623D01*
X68263377Y-93946452D01*
X68487167Y-94281377D01*
X68557322Y-94450747D01*
X68641316Y-94653528D01*
X68719900Y-95048594D01*
X68719900Y-95451406D01*
X68645601Y-95824931D01*
X68641315Y-95846475D01*
X68487167Y-96218623D01*
X68263377Y-96553548D01*
X67978548Y-96838377D01*
X67643623Y-97062167D01*
X67271475Y-97216315D01*
X67271474Y-97216315D01*
X67271472Y-97216316D01*
X66876406Y-97294900D01*
X66473594Y-97294900D01*
X66078528Y-97216316D01*
X66078526Y-97216315D01*
X66078525Y-97216315D01*
X65706377Y-97062167D01*
X65371452Y-96838377D01*
X65086623Y-96553548D01*
X64862833Y-96218623D01*
X64708685Y-95846475D01*
X64704400Y-95824931D01*
X64630100Y-95451406D01*
X64630100Y-95048594D01*
X64708684Y-94653528D01*
X64792678Y-94450747D01*
X64862833Y-94281377D01*
X65086623Y-93946452D01*
X65371452Y-93661623D01*
X65706377Y-93437833D01*
X66078525Y-93283685D01*
X66078526Y-93283685D01*
X66078528Y-93283684D01*
X66473594Y-93205100D01*
X66876406Y-93205100D01*
X67271472Y-93283684D01*
X67271472Y-93283684D01*
G37*
G36*
X105371472Y-93283684D02*
X105371474Y-93283685D01*
X105371475Y-93283685D01*
X105743623Y-93437833D01*
X106078548Y-93661623D01*
X106363377Y-93946452D01*
X106587167Y-94281377D01*
X106657322Y-94450747D01*
X106741316Y-94653528D01*
X106819900Y-95048594D01*
X106819900Y-95451406D01*
X106745601Y-95824931D01*
X106741315Y-95846475D01*
X106587167Y-96218623D01*
X106363377Y-96553548D01*
X106078548Y-96838377D01*
X105743623Y-97062167D01*
X105371475Y-97216315D01*
X105371474Y-97216315D01*
X105371472Y-97216316D01*
X104976406Y-97294900D01*
X104573594Y-97294900D01*
X104178528Y-97216316D01*
X104178526Y-97216315D01*
X104178525Y-97216315D01*
X103806377Y-97062167D01*
X103471452Y-96838377D01*
X103186623Y-96553548D01*
X102962833Y-96218623D01*
X102808685Y-95846475D01*
X102804400Y-95824931D01*
X102730100Y-95451406D01*
X102730100Y-95048594D01*
X102808684Y-94653528D01*
X102892678Y-94450747D01*
X102962833Y-94281377D01*
X103186623Y-93946452D01*
X103471452Y-93661623D01*
X103806377Y-93437833D01*
X104178525Y-93283685D01*
X104178526Y-93283685D01*
X104178528Y-93283684D01*
X104573594Y-93205100D01*
X104976406Y-93205100D01*
X105371472Y-93283684D01*
X105371472Y-93283684D01*
G37*
G36*
X48221472Y-93283684D02*
X48221474Y-93283685D01*
X48221475Y-93283685D01*
X48593623Y-93437833D01*
X48928548Y-93661623D01*
X49213377Y-93946452D01*
X49437167Y-94281377D01*
X49507322Y-94450747D01*
X49591316Y-94653528D01*
X49669900Y-95048594D01*
X49669900Y-95451406D01*
X49595601Y-95824931D01*
X49591315Y-95846475D01*
X49437167Y-96218623D01*
X49213377Y-96553548D01*
X48928548Y-96838377D01*
X48593623Y-97062167D01*
X48221475Y-97216315D01*
X48221474Y-97216315D01*
X48221472Y-97216316D01*
X47826406Y-97294900D01*
X47423594Y-97294900D01*
X47028528Y-97216316D01*
X47028526Y-97216315D01*
X47028525Y-97216315D01*
X46656377Y-97062167D01*
X46321452Y-96838377D01*
X46036623Y-96553548D01*
X45812833Y-96218623D01*
X45658685Y-95846475D01*
X45654400Y-95824931D01*
X45580100Y-95451406D01*
X45580100Y-95048594D01*
X45658684Y-94653528D01*
X45742678Y-94450747D01*
X45812833Y-94281377D01*
X46036623Y-93946452D01*
X46321452Y-93661623D01*
X46656377Y-93437833D01*
X47028525Y-93283685D01*
X47028526Y-93283685D01*
X47028528Y-93283684D01*
X47423594Y-93205100D01*
X47826406Y-93205100D01*
X48221472Y-93283684D01*
X48221472Y-93283684D01*
G37*
G36*
X52909993Y-94371206D02*
X52968075Y-94382759D01*
X53016149Y-94402672D01*
X53132210Y-94450746D01*
X53279931Y-94549450D01*
X53405550Y-94675069D01*
X53504254Y-94822790D01*
X53572241Y-94986926D01*
X53606900Y-95161169D01*
X53606900Y-95338831D01*
X53572241Y-95513074D01*
X53504254Y-95677210D01*
X53405550Y-95824931D01*
X53279931Y-95950550D01*
X53132210Y-96049254D01*
X53016149Y-96097328D01*
X52968075Y-96117241D01*
X52909993Y-96128794D01*
X52793831Y-96151900D01*
X52616169Y-96151900D01*
X52500007Y-96128794D01*
X52441925Y-96117241D01*
X52393851Y-96097328D01*
X52277790Y-96049254D01*
X52130069Y-95950550D01*
X52004450Y-95824931D01*
X51905746Y-95677210D01*
X51837759Y-95513074D01*
X51803100Y-95338831D01*
X51803100Y-95161169D01*
X51837759Y-94986926D01*
X51905746Y-94822790D01*
X52004450Y-94675069D01*
X52130069Y-94549450D01*
X52277790Y-94450746D01*
X52393851Y-94402672D01*
X52441925Y-94382759D01*
X52500007Y-94371206D01*
X52616169Y-94348100D01*
X52793831Y-94348100D01*
X52909993Y-94371206D01*
X52909993Y-94371206D01*
G37*
G36*
X91009993Y-94371206D02*
X91068075Y-94382759D01*
X91116149Y-94402672D01*
X91232210Y-94450746D01*
X91379931Y-94549450D01*
X91505550Y-94675069D01*
X91604254Y-94822790D01*
X91672241Y-94986926D01*
X91706900Y-95161169D01*
X91706900Y-95338831D01*
X91672241Y-95513074D01*
X91604254Y-95677210D01*
X91505550Y-95824931D01*
X91379931Y-95950550D01*
X91232210Y-96049254D01*
X91116149Y-96097328D01*
X91068075Y-96117241D01*
X91009993Y-96128794D01*
X90893831Y-96151900D01*
X90716169Y-96151900D01*
X90600007Y-96128794D01*
X90541925Y-96117241D01*
X90493851Y-96097328D01*
X90377790Y-96049254D01*
X90230069Y-95950550D01*
X90104450Y-95824931D01*
X90005746Y-95677210D01*
X89937759Y-95513074D01*
X89903100Y-95338831D01*
X89903100Y-95161169D01*
X89937759Y-94986926D01*
X90005746Y-94822790D01*
X90104450Y-94675069D01*
X90230069Y-94549450D01*
X90377790Y-94450746D01*
X90493851Y-94402672D01*
X90541925Y-94382759D01*
X90600007Y-94371206D01*
X90716169Y-94348100D01*
X90893831Y-94348100D01*
X91009993Y-94371206D01*
X91009993Y-94371206D01*
G37*
G36*
X71959993Y-94371206D02*
X72018075Y-94382759D01*
X72066149Y-94402672D01*
X72182210Y-94450746D01*
X72329931Y-94549450D01*
X72455550Y-94675069D01*
X72554254Y-94822790D01*
X72622241Y-94986926D01*
X72656900Y-95161169D01*
X72656900Y-95338831D01*
X72622241Y-95513074D01*
X72554254Y-95677210D01*
X72455550Y-95824931D01*
X72329931Y-95950550D01*
X72182210Y-96049254D01*
X72066149Y-96097328D01*
X72018075Y-96117241D01*
X71959993Y-96128794D01*
X71843831Y-96151900D01*
X71666169Y-96151900D01*
X71550007Y-96128794D01*
X71491925Y-96117241D01*
X71443851Y-96097328D01*
X71327790Y-96049254D01*
X71180069Y-95950550D01*
X71054450Y-95824931D01*
X70955746Y-95677210D01*
X70887759Y-95513074D01*
X70853100Y-95338831D01*
X70853100Y-95161169D01*
X70887759Y-94986926D01*
X70955746Y-94822790D01*
X71054450Y-94675069D01*
X71180069Y-94549450D01*
X71327790Y-94450746D01*
X71443851Y-94402672D01*
X71491925Y-94382759D01*
X71550007Y-94371206D01*
X71666169Y-94348100D01*
X71843831Y-94348100D01*
X71959993Y-94371206D01*
X71959993Y-94371206D01*
G37*
G36*
X61799993Y-94371206D02*
X61858075Y-94382759D01*
X61906149Y-94402672D01*
X62022210Y-94450746D01*
X62169931Y-94549450D01*
X62295550Y-94675069D01*
X62394254Y-94822790D01*
X62462241Y-94986926D01*
X62496900Y-95161169D01*
X62496900Y-95338831D01*
X62462241Y-95513074D01*
X62394254Y-95677210D01*
X62295550Y-95824931D01*
X62169931Y-95950550D01*
X62022210Y-96049254D01*
X61906149Y-96097328D01*
X61858075Y-96117241D01*
X61799993Y-96128794D01*
X61683831Y-96151900D01*
X61506169Y-96151900D01*
X61390007Y-96128794D01*
X61331925Y-96117241D01*
X61283851Y-96097328D01*
X61167790Y-96049254D01*
X61020069Y-95950550D01*
X60894450Y-95824931D01*
X60795746Y-95677210D01*
X60727759Y-95513074D01*
X60693100Y-95338831D01*
X60693100Y-95161169D01*
X60727759Y-94986926D01*
X60795746Y-94822790D01*
X60894450Y-94675069D01*
X61020069Y-94549450D01*
X61167790Y-94450746D01*
X61283851Y-94402672D01*
X61331925Y-94382759D01*
X61390007Y-94371206D01*
X61506169Y-94348100D01*
X61683831Y-94348100D01*
X61799993Y-94371206D01*
X61799993Y-94371206D01*
G37*
G36*
X99899993Y-94371206D02*
X99958075Y-94382759D01*
X100006149Y-94402672D01*
X100122210Y-94450746D01*
X100269931Y-94549450D01*
X100395550Y-94675069D01*
X100494254Y-94822790D01*
X100562241Y-94986926D01*
X100596900Y-95161169D01*
X100596900Y-95338831D01*
X100562241Y-95513074D01*
X100494254Y-95677210D01*
X100395550Y-95824931D01*
X100269931Y-95950550D01*
X100122210Y-96049254D01*
X100006149Y-96097328D01*
X99958075Y-96117241D01*
X99899993Y-96128794D01*
X99783831Y-96151900D01*
X99606169Y-96151900D01*
X99490007Y-96128794D01*
X99431925Y-96117241D01*
X99383851Y-96097328D01*
X99267790Y-96049254D01*
X99120069Y-95950550D01*
X98994450Y-95824931D01*
X98895746Y-95677210D01*
X98827759Y-95513074D01*
X98793100Y-95338831D01*
X98793100Y-95161169D01*
X98827759Y-94986926D01*
X98895746Y-94822790D01*
X98994450Y-94675069D01*
X99120069Y-94549450D01*
X99267790Y-94450746D01*
X99383851Y-94402672D01*
X99431925Y-94382759D01*
X99490007Y-94371206D01*
X99606169Y-94348100D01*
X99783831Y-94348100D01*
X99899993Y-94371206D01*
X99899993Y-94371206D01*
G37*
G36*
X42749993Y-94371206D02*
X42808075Y-94382759D01*
X42856149Y-94402672D01*
X42972210Y-94450746D01*
X43119931Y-94549450D01*
X43245550Y-94675069D01*
X43344254Y-94822790D01*
X43412241Y-94986926D01*
X43446900Y-95161169D01*
X43446900Y-95338831D01*
X43412241Y-95513074D01*
X43344254Y-95677210D01*
X43245550Y-95824931D01*
X43119931Y-95950550D01*
X42972210Y-96049254D01*
X42856149Y-96097328D01*
X42808075Y-96117241D01*
X42749993Y-96128794D01*
X42633831Y-96151900D01*
X42456169Y-96151900D01*
X42340007Y-96128794D01*
X42281925Y-96117241D01*
X42233851Y-96097328D01*
X42117790Y-96049254D01*
X41970069Y-95950550D01*
X41844450Y-95824931D01*
X41745746Y-95677210D01*
X41677759Y-95513074D01*
X41643100Y-95338831D01*
X41643100Y-95161169D01*
X41677759Y-94986926D01*
X41745746Y-94822790D01*
X41844450Y-94675069D01*
X41970069Y-94549450D01*
X42117790Y-94450746D01*
X42233851Y-94402672D01*
X42281925Y-94382759D01*
X42340007Y-94371206D01*
X42456169Y-94348100D01*
X42633831Y-94348100D01*
X42749993Y-94371206D01*
X42749993Y-94371206D01*
G37*
G36*
X80849993Y-94371206D02*
X80908075Y-94382759D01*
X80956149Y-94402672D01*
X81072210Y-94450746D01*
X81219931Y-94549450D01*
X81345550Y-94675069D01*
X81444254Y-94822790D01*
X81512241Y-94986926D01*
X81546900Y-95161169D01*
X81546900Y-95338831D01*
X81512241Y-95513074D01*
X81444254Y-95677210D01*
X81345550Y-95824931D01*
X81219931Y-95950550D01*
X81072210Y-96049254D01*
X80956149Y-96097328D01*
X80908075Y-96117241D01*
X80849993Y-96128794D01*
X80733831Y-96151900D01*
X80556169Y-96151900D01*
X80440007Y-96128794D01*
X80381925Y-96117241D01*
X80333851Y-96097328D01*
X80217790Y-96049254D01*
X80070069Y-95950550D01*
X79944450Y-95824931D01*
X79845746Y-95677210D01*
X79777759Y-95513074D01*
X79743100Y-95338831D01*
X79743100Y-95161169D01*
X79777759Y-94986926D01*
X79845746Y-94822790D01*
X79944450Y-94675069D01*
X80070069Y-94549450D01*
X80217790Y-94450746D01*
X80333851Y-94402672D01*
X80381925Y-94382759D01*
X80440007Y-94371206D01*
X80556169Y-94348100D01*
X80733831Y-94348100D01*
X80849993Y-94371206D01*
X80849993Y-94371206D01*
G37*
G36*
X110059993Y-94371206D02*
X110118075Y-94382759D01*
X110166149Y-94402672D01*
X110282210Y-94450746D01*
X110429931Y-94549450D01*
X110555550Y-94675069D01*
X110654254Y-94822790D01*
X110722241Y-94986926D01*
X110756900Y-95161169D01*
X110756900Y-95338831D01*
X110722241Y-95513074D01*
X110654254Y-95677210D01*
X110555550Y-95824931D01*
X110429931Y-95950550D01*
X110282210Y-96049254D01*
X110166149Y-96097328D01*
X110118075Y-96117241D01*
X110059993Y-96128794D01*
X109943831Y-96151900D01*
X109766169Y-96151900D01*
X109650007Y-96128794D01*
X109591925Y-96117241D01*
X109543851Y-96097328D01*
X109427790Y-96049254D01*
X109280069Y-95950550D01*
X109154450Y-95824931D01*
X109055746Y-95677210D01*
X108987759Y-95513074D01*
X108953100Y-95338831D01*
X108953100Y-95161169D01*
X108987759Y-94986926D01*
X109055746Y-94822790D01*
X109154450Y-94675069D01*
X109280069Y-94549450D01*
X109427790Y-94450746D01*
X109543851Y-94402672D01*
X109591925Y-94382759D01*
X109650007Y-94371206D01*
X109766169Y-94348100D01*
X109943831Y-94348100D01*
X110059993Y-94371206D01*
X110059993Y-94371206D01*
G37*
G36*
X64254809Y-89871734D02*
X64343112Y-89874238D01*
X64420990Y-89892039D01*
X64612145Y-89935732D01*
X64708199Y-89978749D01*
X64864014Y-90048530D01*
X65089037Y-90208298D01*
X65089041Y-90208301D01*
X65278566Y-90408894D01*
X65425321Y-90642613D01*
X65471576Y-90763904D01*
X65523659Y-90900472D01*
X65539039Y-90991168D01*
X65569802Y-91172558D01*
X65564796Y-91349000D01*
X65561976Y-91448421D01*
X65561975Y-91448424D01*
X65500482Y-91717454D01*
X65500481Y-91717456D01*
X65387684Y-91969324D01*
X65341944Y-92033745D01*
X65267950Y-92137961D01*
X63996743Y-93600318D01*
X63853208Y-93735934D01*
X63846413Y-93742354D01*
X63759448Y-93796960D01*
X63612695Y-93889107D01*
X63354835Y-93987446D01*
X63082753Y-94033588D01*
X62946991Y-94029736D01*
X62806888Y-94025762D01*
X62766348Y-94016495D01*
X62537854Y-93964269D01*
X62331630Y-93871912D01*
X62285985Y-93851470D01*
X62060962Y-93691702D01*
X62060959Y-93691700D01*
X61871433Y-93491106D01*
X61724679Y-93257387D01*
X61626340Y-92999527D01*
X61580198Y-92727445D01*
X61585204Y-92551000D01*
X61588024Y-92451580D01*
X61599144Y-92402931D01*
X61649517Y-92182546D01*
X61762315Y-91930680D01*
X61762316Y-91930677D01*
X61882050Y-91762039D01*
X61997275Y-91629488D01*
X62657041Y-90870512D01*
X63153252Y-90299686D01*
X63153256Y-90299682D01*
X63303584Y-90157648D01*
X63537304Y-90010893D01*
X63645586Y-89969599D01*
X63795162Y-89912555D01*
X63885858Y-89897175D01*
X64067248Y-89866412D01*
X64254809Y-89871734D01*
X64254809Y-89871734D01*
G37*
G36*
X45204809Y-89871734D02*
X45293112Y-89874238D01*
X45370990Y-89892039D01*
X45562145Y-89935732D01*
X45658199Y-89978749D01*
X45814014Y-90048530D01*
X46039037Y-90208298D01*
X46039041Y-90208301D01*
X46228566Y-90408894D01*
X46375321Y-90642613D01*
X46421576Y-90763904D01*
X46473659Y-90900472D01*
X46489039Y-90991168D01*
X46519802Y-91172558D01*
X46514796Y-91349000D01*
X46511976Y-91448421D01*
X46511975Y-91448424D01*
X46450482Y-91717454D01*
X46450481Y-91717456D01*
X46337684Y-91969324D01*
X46291944Y-92033745D01*
X46217950Y-92137961D01*
X44946743Y-93600318D01*
X44803208Y-93735934D01*
X44796413Y-93742354D01*
X44709448Y-93796960D01*
X44562695Y-93889107D01*
X44304835Y-93987446D01*
X44032753Y-94033588D01*
X43896991Y-94029736D01*
X43756888Y-94025762D01*
X43716348Y-94016495D01*
X43487854Y-93964269D01*
X43281630Y-93871912D01*
X43235985Y-93851470D01*
X43010962Y-93691702D01*
X43010959Y-93691700D01*
X42821433Y-93491106D01*
X42674679Y-93257387D01*
X42576340Y-92999527D01*
X42530198Y-92727445D01*
X42535204Y-92551000D01*
X42538024Y-92451580D01*
X42549144Y-92402931D01*
X42599517Y-92182546D01*
X42712315Y-91930680D01*
X42712316Y-91930677D01*
X42832050Y-91762039D01*
X42947275Y-91629488D01*
X43607041Y-90870512D01*
X44103252Y-90299686D01*
X44103256Y-90299682D01*
X44253584Y-90157648D01*
X44487304Y-90010893D01*
X44595586Y-89969599D01*
X44745162Y-89912555D01*
X44835858Y-89897175D01*
X45017248Y-89866412D01*
X45204809Y-89871734D01*
X45204809Y-89871734D01*
G37*
G36*
X83304809Y-89871734D02*
X83393112Y-89874238D01*
X83470990Y-89892039D01*
X83662145Y-89935732D01*
X83758199Y-89978749D01*
X83914014Y-90048530D01*
X84139037Y-90208298D01*
X84139041Y-90208301D01*
X84328566Y-90408894D01*
X84475321Y-90642613D01*
X84521576Y-90763904D01*
X84573659Y-90900472D01*
X84589039Y-90991168D01*
X84619802Y-91172558D01*
X84614796Y-91349000D01*
X84611976Y-91448421D01*
X84611975Y-91448424D01*
X84550482Y-91717454D01*
X84550481Y-91717456D01*
X84437684Y-91969324D01*
X84391944Y-92033745D01*
X84317950Y-92137961D01*
X83046743Y-93600318D01*
X82903208Y-93735934D01*
X82896413Y-93742354D01*
X82809448Y-93796960D01*
X82662695Y-93889107D01*
X82404835Y-93987446D01*
X82132753Y-94033588D01*
X81996991Y-94029736D01*
X81856888Y-94025762D01*
X81816348Y-94016495D01*
X81587854Y-93964269D01*
X81381630Y-93871912D01*
X81335985Y-93851470D01*
X81110962Y-93691702D01*
X81110959Y-93691700D01*
X80921433Y-93491106D01*
X80774679Y-93257387D01*
X80676340Y-92999527D01*
X80630198Y-92727445D01*
X80635204Y-92551000D01*
X80638024Y-92451580D01*
X80649144Y-92402931D01*
X80699517Y-92182546D01*
X80812315Y-91930680D01*
X80812316Y-91930677D01*
X80932050Y-91762039D01*
X81047275Y-91629488D01*
X81707041Y-90870512D01*
X82203252Y-90299686D01*
X82203256Y-90299682D01*
X82353584Y-90157648D01*
X82587304Y-90010893D01*
X82695586Y-89969599D01*
X82845162Y-89912555D01*
X82935858Y-89897175D01*
X83117248Y-89866412D01*
X83304809Y-89871734D01*
X83304809Y-89871734D01*
G37*
G36*
X102354809Y-89871734D02*
X102443112Y-89874238D01*
X102520990Y-89892039D01*
X102712145Y-89935732D01*
X102808199Y-89978749D01*
X102964014Y-90048530D01*
X103189037Y-90208298D01*
X103189041Y-90208301D01*
X103378566Y-90408894D01*
X103525321Y-90642613D01*
X103571576Y-90763904D01*
X103623659Y-90900472D01*
X103639039Y-90991168D01*
X103669802Y-91172558D01*
X103664796Y-91349000D01*
X103661976Y-91448421D01*
X103661975Y-91448424D01*
X103600482Y-91717454D01*
X103600481Y-91717456D01*
X103487684Y-91969324D01*
X103441944Y-92033745D01*
X103367950Y-92137961D01*
X102096743Y-93600318D01*
X101953208Y-93735934D01*
X101946413Y-93742354D01*
X101859448Y-93796960D01*
X101712695Y-93889107D01*
X101454835Y-93987446D01*
X101182753Y-94033588D01*
X101046991Y-94029736D01*
X100906888Y-94025762D01*
X100866348Y-94016495D01*
X100637854Y-93964269D01*
X100431630Y-93871912D01*
X100385985Y-93851470D01*
X100160962Y-93691702D01*
X100160959Y-93691700D01*
X99971433Y-93491106D01*
X99824679Y-93257387D01*
X99726340Y-92999527D01*
X99680198Y-92727445D01*
X99685204Y-92551000D01*
X99688024Y-92451580D01*
X99699144Y-92402931D01*
X99749517Y-92182546D01*
X99862315Y-91930680D01*
X99862316Y-91930677D01*
X99982050Y-91762039D01*
X100097275Y-91629488D01*
X100757041Y-90870512D01*
X101253252Y-90299686D01*
X101253256Y-90299682D01*
X101403584Y-90157648D01*
X101637304Y-90010893D01*
X101745586Y-89969599D01*
X101895162Y-89912555D01*
X101985858Y-89897175D01*
X102167248Y-89866412D01*
X102354809Y-89871734D01*
X102354809Y-89871734D01*
G37*
G36*
X107530040Y-88917825D02*
X107775280Y-88992218D01*
X107775282Y-88992219D01*
X108001296Y-89113026D01*
X108199397Y-89275603D01*
X108361976Y-89473706D01*
X108482780Y-89699716D01*
X108482781Y-89699719D01*
X108482782Y-89699721D01*
X108557175Y-89944961D01*
X108576000Y-90136096D01*
X108576000Y-90763905D01*
X108557175Y-90955040D01*
X108482782Y-91200280D01*
X108361976Y-91426293D01*
X108361974Y-91426295D01*
X108199396Y-91624397D01*
X108001295Y-91786974D01*
X108001293Y-91786975D01*
X107775279Y-91907782D01*
X107530039Y-91982175D01*
X107275000Y-92007294D01*
X107019960Y-91982175D01*
X106774720Y-91907782D01*
X106548706Y-91786975D01*
X106463995Y-91717454D01*
X106350603Y-91624396D01*
X106188026Y-91426295D01*
X106067219Y-91200281D01*
X106043431Y-91121863D01*
X105992825Y-90955039D01*
X105974000Y-90763904D01*
X105974000Y-90136095D01*
X105992825Y-89944960D01*
X106067218Y-89699720D01*
X106188025Y-89473706D01*
X106202602Y-89455944D01*
X106350604Y-89275603D01*
X106548705Y-89113026D01*
X106774719Y-88992219D01*
X106774721Y-88992218D01*
X107019961Y-88917825D01*
X107275000Y-88892706D01*
X107530040Y-88917825D01*
X107530040Y-88917825D01*
G37*
G36*
X88480040Y-88917825D02*
X88725280Y-88992218D01*
X88725282Y-88992219D01*
X88951296Y-89113026D01*
X89149397Y-89275603D01*
X89311976Y-89473706D01*
X89432780Y-89699716D01*
X89432781Y-89699719D01*
X89432782Y-89699721D01*
X89507175Y-89944961D01*
X89526000Y-90136096D01*
X89526000Y-90763905D01*
X89507175Y-90955040D01*
X89432782Y-91200280D01*
X89311976Y-91426293D01*
X89311974Y-91426295D01*
X89149396Y-91624397D01*
X88951295Y-91786974D01*
X88951293Y-91786975D01*
X88725279Y-91907782D01*
X88480039Y-91982175D01*
X88225000Y-92007294D01*
X87969960Y-91982175D01*
X87724720Y-91907782D01*
X87498706Y-91786975D01*
X87413995Y-91717454D01*
X87300603Y-91624396D01*
X87138026Y-91426295D01*
X87017219Y-91200281D01*
X86993431Y-91121863D01*
X86942825Y-90955039D01*
X86924000Y-90763904D01*
X86924000Y-90136095D01*
X86942825Y-89944960D01*
X87017218Y-89699720D01*
X87138025Y-89473706D01*
X87152602Y-89455944D01*
X87300604Y-89275603D01*
X87498705Y-89113026D01*
X87724719Y-88992219D01*
X87724721Y-88992218D01*
X87969961Y-88917825D01*
X88225000Y-88892706D01*
X88480040Y-88917825D01*
X88480040Y-88917825D01*
G37*
G36*
X50380040Y-88917825D02*
X50625280Y-88992218D01*
X50625282Y-88992219D01*
X50851296Y-89113026D01*
X51049397Y-89275603D01*
X51211976Y-89473706D01*
X51332780Y-89699716D01*
X51332781Y-89699719D01*
X51332782Y-89699721D01*
X51407175Y-89944961D01*
X51426000Y-90136096D01*
X51426000Y-90763905D01*
X51407175Y-90955040D01*
X51332782Y-91200280D01*
X51211976Y-91426293D01*
X51211974Y-91426295D01*
X51049396Y-91624397D01*
X50851295Y-91786974D01*
X50851293Y-91786975D01*
X50625279Y-91907782D01*
X50380039Y-91982175D01*
X50125000Y-92007294D01*
X49869960Y-91982175D01*
X49624720Y-91907782D01*
X49398706Y-91786975D01*
X49313995Y-91717454D01*
X49200603Y-91624396D01*
X49038026Y-91426295D01*
X48917219Y-91200281D01*
X48893431Y-91121863D01*
X48842825Y-90955039D01*
X48824000Y-90763904D01*
X48824000Y-90136095D01*
X48842825Y-89944960D01*
X48917218Y-89699720D01*
X49038025Y-89473706D01*
X49052602Y-89455944D01*
X49200604Y-89275603D01*
X49398705Y-89113026D01*
X49624719Y-88992219D01*
X49624721Y-88992218D01*
X49869961Y-88917825D01*
X50125000Y-88892706D01*
X50380040Y-88917825D01*
X50380040Y-88917825D01*
G37*
G36*
X69430040Y-88917825D02*
X69675280Y-88992218D01*
X69675282Y-88992219D01*
X69901296Y-89113026D01*
X70099397Y-89275603D01*
X70261976Y-89473706D01*
X70382780Y-89699716D01*
X70382781Y-89699719D01*
X70382782Y-89699721D01*
X70457175Y-89944961D01*
X70476000Y-90136096D01*
X70476000Y-90763905D01*
X70457175Y-90955040D01*
X70382782Y-91200280D01*
X70261976Y-91426293D01*
X70261974Y-91426295D01*
X70099396Y-91624397D01*
X69901295Y-91786974D01*
X69901293Y-91786975D01*
X69675279Y-91907782D01*
X69430039Y-91982175D01*
X69175000Y-92007294D01*
X68919960Y-91982175D01*
X68674720Y-91907782D01*
X68448706Y-91786975D01*
X68363995Y-91717454D01*
X68250603Y-91624396D01*
X68088026Y-91426295D01*
X67967219Y-91200281D01*
X67943431Y-91121863D01*
X67892825Y-90955039D01*
X67874000Y-90763904D01*
X67874000Y-90136095D01*
X67892825Y-89944960D01*
X67967218Y-89699720D01*
X68088025Y-89473706D01*
X68102602Y-89455944D01*
X68250604Y-89275603D01*
X68448705Y-89113026D01*
X68674719Y-88992219D01*
X68674721Y-88992218D01*
X68919961Y-88917825D01*
X69175000Y-88892706D01*
X69430040Y-88917825D01*
X69430040Y-88917825D01*
G37*
G36*
X76625256Y-84141298D02*
X76731579Y-84162447D01*
X77032042Y-84286903D01*
X77298852Y-84465180D01*
X77302454Y-84467587D01*
X77532413Y-84697546D01*
X77713098Y-84967960D01*
X77837553Y-85268422D01*
X77901000Y-85587389D01*
X77901000Y-85912611D01*
X77837553Y-86231578D01*
X77713098Y-86532040D01*
X77532413Y-86802454D01*
X77302454Y-87032413D01*
X77302451Y-87032415D01*
X77032042Y-87213097D01*
X76731579Y-87337553D01*
X76625256Y-87358702D01*
X76412611Y-87401000D01*
X76087389Y-87401000D01*
X75874744Y-87358702D01*
X75768421Y-87337553D01*
X75467958Y-87213097D01*
X75197549Y-87032415D01*
X75197546Y-87032413D01*
X74967587Y-86802454D01*
X74786902Y-86532040D01*
X74662447Y-86231578D01*
X74599000Y-85912611D01*
X74599000Y-85587389D01*
X74662447Y-85268422D01*
X74786902Y-84967960D01*
X74967587Y-84697546D01*
X75197546Y-84467587D01*
X75201148Y-84465180D01*
X75467958Y-84286903D01*
X75768421Y-84162447D01*
X75874744Y-84141298D01*
X76087389Y-84099000D01*
X76412611Y-84099000D01*
X76625256Y-84141298D01*
X76625256Y-84141298D01*
G37*
G36*
X86321472Y-74233684D02*
X86321474Y-74233685D01*
X86321475Y-74233685D01*
X86693623Y-74387833D01*
X87028548Y-74611623D01*
X87313377Y-74896452D01*
X87537167Y-75231377D01*
X87607322Y-75400747D01*
X87691316Y-75603528D01*
X87769900Y-75998594D01*
X87769900Y-76401406D01*
X87695601Y-76774931D01*
X87691315Y-76796475D01*
X87537167Y-77168623D01*
X87313377Y-77503548D01*
X87028548Y-77788377D01*
X86693623Y-78012167D01*
X86321475Y-78166315D01*
X86321474Y-78166315D01*
X86321472Y-78166316D01*
X85926406Y-78244900D01*
X85523594Y-78244900D01*
X85128528Y-78166316D01*
X85128526Y-78166315D01*
X85128525Y-78166315D01*
X84756377Y-78012167D01*
X84421452Y-77788377D01*
X84136623Y-77503548D01*
X83912833Y-77168623D01*
X83758685Y-76796475D01*
X83754400Y-76774931D01*
X83680100Y-76401406D01*
X83680100Y-75998594D01*
X83758684Y-75603528D01*
X83842678Y-75400747D01*
X83912833Y-75231377D01*
X84136623Y-74896452D01*
X84421452Y-74611623D01*
X84756377Y-74387833D01*
X85128525Y-74233685D01*
X85128526Y-74233685D01*
X85128528Y-74233684D01*
X85523594Y-74155100D01*
X85926406Y-74155100D01*
X86321472Y-74233684D01*
X86321472Y-74233684D01*
G37*
G36*
X48221472Y-74233684D02*
X48221474Y-74233685D01*
X48221475Y-74233685D01*
X48593623Y-74387833D01*
X48928548Y-74611623D01*
X49213377Y-74896452D01*
X49437167Y-75231377D01*
X49507322Y-75400747D01*
X49591316Y-75603528D01*
X49669900Y-75998594D01*
X49669900Y-76401406D01*
X49595601Y-76774931D01*
X49591315Y-76796475D01*
X49437167Y-77168623D01*
X49213377Y-77503548D01*
X48928548Y-77788377D01*
X48593623Y-78012167D01*
X48221475Y-78166315D01*
X48221474Y-78166315D01*
X48221472Y-78166316D01*
X47826406Y-78244900D01*
X47423594Y-78244900D01*
X47028528Y-78166316D01*
X47028526Y-78166315D01*
X47028525Y-78166315D01*
X46656377Y-78012167D01*
X46321452Y-77788377D01*
X46036623Y-77503548D01*
X45812833Y-77168623D01*
X45658685Y-76796475D01*
X45654400Y-76774931D01*
X45580100Y-76401406D01*
X45580100Y-75998594D01*
X45658684Y-75603528D01*
X45742678Y-75400747D01*
X45812833Y-75231377D01*
X46036623Y-74896452D01*
X46321452Y-74611623D01*
X46656377Y-74387833D01*
X47028525Y-74233685D01*
X47028526Y-74233685D01*
X47028528Y-74233684D01*
X47423594Y-74155100D01*
X47826406Y-74155100D01*
X48221472Y-74233684D01*
X48221472Y-74233684D01*
G37*
G36*
X67271472Y-74233684D02*
X67271474Y-74233685D01*
X67271475Y-74233685D01*
X67643623Y-74387833D01*
X67978548Y-74611623D01*
X68263377Y-74896452D01*
X68487167Y-75231377D01*
X68557322Y-75400747D01*
X68641316Y-75603528D01*
X68719900Y-75998594D01*
X68719900Y-76401406D01*
X68645601Y-76774931D01*
X68641315Y-76796475D01*
X68487167Y-77168623D01*
X68263377Y-77503548D01*
X67978548Y-77788377D01*
X67643623Y-78012167D01*
X67271475Y-78166315D01*
X67271474Y-78166315D01*
X67271472Y-78166316D01*
X66876406Y-78244900D01*
X66473594Y-78244900D01*
X66078528Y-78166316D01*
X66078526Y-78166315D01*
X66078525Y-78166315D01*
X65706377Y-78012167D01*
X65371452Y-77788377D01*
X65086623Y-77503548D01*
X64862833Y-77168623D01*
X64708685Y-76796475D01*
X64704400Y-76774931D01*
X64630100Y-76401406D01*
X64630100Y-75998594D01*
X64708684Y-75603528D01*
X64792678Y-75400747D01*
X64862833Y-75231377D01*
X65086623Y-74896452D01*
X65371452Y-74611623D01*
X65706377Y-74387833D01*
X66078525Y-74233685D01*
X66078526Y-74233685D01*
X66078528Y-74233684D01*
X66473594Y-74155100D01*
X66876406Y-74155100D01*
X67271472Y-74233684D01*
X67271472Y-74233684D01*
G37*
G36*
X105371472Y-74233684D02*
X105371474Y-74233685D01*
X105371475Y-74233685D01*
X105743623Y-74387833D01*
X106078548Y-74611623D01*
X106363377Y-74896452D01*
X106587167Y-75231377D01*
X106657322Y-75400747D01*
X106741316Y-75603528D01*
X106819900Y-75998594D01*
X106819900Y-76401406D01*
X106745601Y-76774931D01*
X106741315Y-76796475D01*
X106587167Y-77168623D01*
X106363377Y-77503548D01*
X106078548Y-77788377D01*
X105743623Y-78012167D01*
X105371475Y-78166315D01*
X105371474Y-78166315D01*
X105371472Y-78166316D01*
X104976406Y-78244900D01*
X104573594Y-78244900D01*
X104178528Y-78166316D01*
X104178526Y-78166315D01*
X104178525Y-78166315D01*
X103806377Y-78012167D01*
X103471452Y-77788377D01*
X103186623Y-77503548D01*
X102962833Y-77168623D01*
X102808685Y-76796475D01*
X102804400Y-76774931D01*
X102730100Y-76401406D01*
X102730100Y-75998594D01*
X102808684Y-75603528D01*
X102892678Y-75400747D01*
X102962833Y-75231377D01*
X103186623Y-74896452D01*
X103471452Y-74611623D01*
X103806377Y-74387833D01*
X104178525Y-74233685D01*
X104178526Y-74233685D01*
X104178528Y-74233684D01*
X104573594Y-74155100D01*
X104976406Y-74155100D01*
X105371472Y-74233684D01*
X105371472Y-74233684D01*
G37*
G36*
X42749993Y-75321206D02*
X42808075Y-75332759D01*
X42856149Y-75352672D01*
X42972210Y-75400746D01*
X43119931Y-75499450D01*
X43245550Y-75625069D01*
X43344254Y-75772790D01*
X43412241Y-75936926D01*
X43446900Y-76111169D01*
X43446900Y-76288831D01*
X43412241Y-76463074D01*
X43344254Y-76627210D01*
X43245550Y-76774931D01*
X43119931Y-76900550D01*
X42972210Y-76999254D01*
X42856149Y-77047328D01*
X42808075Y-77067241D01*
X42749993Y-77078794D01*
X42633831Y-77101900D01*
X42456169Y-77101900D01*
X42340007Y-77078794D01*
X42281925Y-77067241D01*
X42233851Y-77047328D01*
X42117790Y-76999254D01*
X41970069Y-76900550D01*
X41844450Y-76774931D01*
X41745746Y-76627210D01*
X41677759Y-76463074D01*
X41643100Y-76288831D01*
X41643100Y-76111169D01*
X41677759Y-75936926D01*
X41745746Y-75772790D01*
X41844450Y-75625069D01*
X41970069Y-75499450D01*
X42117790Y-75400746D01*
X42233851Y-75352672D01*
X42281925Y-75332759D01*
X42340007Y-75321206D01*
X42456169Y-75298100D01*
X42633831Y-75298100D01*
X42749993Y-75321206D01*
X42749993Y-75321206D01*
G37*
G36*
X91009993Y-75321206D02*
X91068075Y-75332759D01*
X91116149Y-75352672D01*
X91232210Y-75400746D01*
X91379931Y-75499450D01*
X91505550Y-75625069D01*
X91604254Y-75772790D01*
X91672241Y-75936926D01*
X91706900Y-76111169D01*
X91706900Y-76288831D01*
X91672241Y-76463074D01*
X91604254Y-76627210D01*
X91505550Y-76774931D01*
X91379931Y-76900550D01*
X91232210Y-76999254D01*
X91116149Y-77047328D01*
X91068075Y-77067241D01*
X91009993Y-77078794D01*
X90893831Y-77101900D01*
X90716169Y-77101900D01*
X90600007Y-77078794D01*
X90541925Y-77067241D01*
X90493851Y-77047328D01*
X90377790Y-76999254D01*
X90230069Y-76900550D01*
X90104450Y-76774931D01*
X90005746Y-76627210D01*
X89937759Y-76463074D01*
X89903100Y-76288831D01*
X89903100Y-76111169D01*
X89937759Y-75936926D01*
X90005746Y-75772790D01*
X90104450Y-75625069D01*
X90230069Y-75499450D01*
X90377790Y-75400746D01*
X90493851Y-75352672D01*
X90541925Y-75332759D01*
X90600007Y-75321206D01*
X90716169Y-75298100D01*
X90893831Y-75298100D01*
X91009993Y-75321206D01*
X91009993Y-75321206D01*
G37*
G36*
X80849993Y-75321206D02*
X80908075Y-75332759D01*
X80956149Y-75352672D01*
X81072210Y-75400746D01*
X81219931Y-75499450D01*
X81345550Y-75625069D01*
X81444254Y-75772790D01*
X81512241Y-75936926D01*
X81546900Y-76111169D01*
X81546900Y-76288831D01*
X81512241Y-76463074D01*
X81444254Y-76627210D01*
X81345550Y-76774931D01*
X81219931Y-76900550D01*
X81072210Y-76999254D01*
X80956149Y-77047328D01*
X80908075Y-77067241D01*
X80849993Y-77078794D01*
X80733831Y-77101900D01*
X80556169Y-77101900D01*
X80440007Y-77078794D01*
X80381925Y-77067241D01*
X80333851Y-77047328D01*
X80217790Y-76999254D01*
X80070069Y-76900550D01*
X79944450Y-76774931D01*
X79845746Y-76627210D01*
X79777759Y-76463074D01*
X79743100Y-76288831D01*
X79743100Y-76111169D01*
X79777759Y-75936926D01*
X79845746Y-75772790D01*
X79944450Y-75625069D01*
X80070069Y-75499450D01*
X80217790Y-75400746D01*
X80333851Y-75352672D01*
X80381925Y-75332759D01*
X80440007Y-75321206D01*
X80556169Y-75298100D01*
X80733831Y-75298100D01*
X80849993Y-75321206D01*
X80849993Y-75321206D01*
G37*
G36*
X71959993Y-75321206D02*
X72018075Y-75332759D01*
X72066149Y-75352672D01*
X72182210Y-75400746D01*
X72329931Y-75499450D01*
X72455550Y-75625069D01*
X72554254Y-75772790D01*
X72622241Y-75936926D01*
X72656900Y-76111169D01*
X72656900Y-76288831D01*
X72622241Y-76463074D01*
X72554254Y-76627210D01*
X72455550Y-76774931D01*
X72329931Y-76900550D01*
X72182210Y-76999254D01*
X72066149Y-77047328D01*
X72018075Y-77067241D01*
X71959993Y-77078794D01*
X71843831Y-77101900D01*
X71666169Y-77101900D01*
X71550007Y-77078794D01*
X71491925Y-77067241D01*
X71443851Y-77047328D01*
X71327790Y-76999254D01*
X71180069Y-76900550D01*
X71054450Y-76774931D01*
X70955746Y-76627210D01*
X70887759Y-76463074D01*
X70853100Y-76288831D01*
X70853100Y-76111169D01*
X70887759Y-75936926D01*
X70955746Y-75772790D01*
X71054450Y-75625069D01*
X71180069Y-75499450D01*
X71327790Y-75400746D01*
X71443851Y-75352672D01*
X71491925Y-75332759D01*
X71550007Y-75321206D01*
X71666169Y-75298100D01*
X71843831Y-75298100D01*
X71959993Y-75321206D01*
X71959993Y-75321206D01*
G37*
G36*
X61799993Y-75321206D02*
X61858075Y-75332759D01*
X61906149Y-75352672D01*
X62022210Y-75400746D01*
X62169931Y-75499450D01*
X62295550Y-75625069D01*
X62394254Y-75772790D01*
X62462241Y-75936926D01*
X62496900Y-76111169D01*
X62496900Y-76288831D01*
X62462241Y-76463074D01*
X62394254Y-76627210D01*
X62295550Y-76774931D01*
X62169931Y-76900550D01*
X62022210Y-76999254D01*
X61906149Y-77047328D01*
X61858075Y-77067241D01*
X61799993Y-77078794D01*
X61683831Y-77101900D01*
X61506169Y-77101900D01*
X61390007Y-77078794D01*
X61331925Y-77067241D01*
X61283851Y-77047328D01*
X61167790Y-76999254D01*
X61020069Y-76900550D01*
X60894450Y-76774931D01*
X60795746Y-76627210D01*
X60727759Y-76463074D01*
X60693100Y-76288831D01*
X60693100Y-76111169D01*
X60727759Y-75936926D01*
X60795746Y-75772790D01*
X60894450Y-75625069D01*
X61020069Y-75499450D01*
X61167790Y-75400746D01*
X61283851Y-75352672D01*
X61331925Y-75332759D01*
X61390007Y-75321206D01*
X61506169Y-75298100D01*
X61683831Y-75298100D01*
X61799993Y-75321206D01*
X61799993Y-75321206D01*
G37*
G36*
X110059993Y-75321206D02*
X110118075Y-75332759D01*
X110166149Y-75352672D01*
X110282210Y-75400746D01*
X110429931Y-75499450D01*
X110555550Y-75625069D01*
X110654254Y-75772790D01*
X110722241Y-75936926D01*
X110756900Y-76111169D01*
X110756900Y-76288831D01*
X110722241Y-76463074D01*
X110654254Y-76627210D01*
X110555550Y-76774931D01*
X110429931Y-76900550D01*
X110282210Y-76999254D01*
X110166149Y-77047328D01*
X110118075Y-77067241D01*
X110059993Y-77078794D01*
X109943831Y-77101900D01*
X109766169Y-77101900D01*
X109650007Y-77078794D01*
X109591925Y-77067241D01*
X109543851Y-77047328D01*
X109427790Y-76999254D01*
X109280069Y-76900550D01*
X109154450Y-76774931D01*
X109055746Y-76627210D01*
X108987759Y-76463074D01*
X108953100Y-76288831D01*
X108953100Y-76111169D01*
X108987759Y-75936926D01*
X109055746Y-75772790D01*
X109154450Y-75625069D01*
X109280069Y-75499450D01*
X109427790Y-75400746D01*
X109543851Y-75352672D01*
X109591925Y-75332759D01*
X109650007Y-75321206D01*
X109766169Y-75298100D01*
X109943831Y-75298100D01*
X110059993Y-75321206D01*
X110059993Y-75321206D01*
G37*
G36*
X99899993Y-75321206D02*
X99958075Y-75332759D01*
X100006149Y-75352672D01*
X100122210Y-75400746D01*
X100269931Y-75499450D01*
X100395550Y-75625069D01*
X100494254Y-75772790D01*
X100562241Y-75936926D01*
X100596900Y-76111169D01*
X100596900Y-76288831D01*
X100562241Y-76463074D01*
X100494254Y-76627210D01*
X100395550Y-76774931D01*
X100269931Y-76900550D01*
X100122210Y-76999254D01*
X100006149Y-77047328D01*
X99958075Y-77067241D01*
X99899993Y-77078794D01*
X99783831Y-77101900D01*
X99606169Y-77101900D01*
X99490007Y-77078794D01*
X99431925Y-77067241D01*
X99383851Y-77047328D01*
X99267790Y-76999254D01*
X99120069Y-76900550D01*
X98994450Y-76774931D01*
X98895746Y-76627210D01*
X98827759Y-76463074D01*
X98793100Y-76288831D01*
X98793100Y-76111169D01*
X98827759Y-75936926D01*
X98895746Y-75772790D01*
X98994450Y-75625069D01*
X99120069Y-75499450D01*
X99267790Y-75400746D01*
X99383851Y-75352672D01*
X99431925Y-75332759D01*
X99490007Y-75321206D01*
X99606169Y-75298100D01*
X99783831Y-75298100D01*
X99899993Y-75321206D01*
X99899993Y-75321206D01*
G37*
G36*
X52909993Y-75321206D02*
X52968075Y-75332759D01*
X53016149Y-75352672D01*
X53132210Y-75400746D01*
X53279931Y-75499450D01*
X53405550Y-75625069D01*
X53504254Y-75772790D01*
X53572241Y-75936926D01*
X53606900Y-76111169D01*
X53606900Y-76288831D01*
X53572241Y-76463074D01*
X53504254Y-76627210D01*
X53405550Y-76774931D01*
X53279931Y-76900550D01*
X53132210Y-76999254D01*
X53016149Y-77047328D01*
X52968075Y-77067241D01*
X52909993Y-77078794D01*
X52793831Y-77101900D01*
X52616169Y-77101900D01*
X52500007Y-77078794D01*
X52441925Y-77067241D01*
X52393851Y-77047328D01*
X52277790Y-76999254D01*
X52130069Y-76900550D01*
X52004450Y-76774931D01*
X51905746Y-76627210D01*
X51837759Y-76463074D01*
X51803100Y-76288831D01*
X51803100Y-76111169D01*
X51837759Y-75936926D01*
X51905746Y-75772790D01*
X52004450Y-75625069D01*
X52130069Y-75499450D01*
X52277790Y-75400746D01*
X52393851Y-75352672D01*
X52441925Y-75332759D01*
X52500007Y-75321206D01*
X52616169Y-75298100D01*
X52793831Y-75298100D01*
X52909993Y-75321206D01*
X52909993Y-75321206D01*
G37*
G36*
X102354809Y-70821734D02*
X102443112Y-70824238D01*
X102520990Y-70842039D01*
X102712145Y-70885732D01*
X102808199Y-70928749D01*
X102964014Y-70998530D01*
X103189037Y-71158298D01*
X103189041Y-71158301D01*
X103378566Y-71358894D01*
X103525321Y-71592613D01*
X103571576Y-71713904D01*
X103623659Y-71850472D01*
X103639039Y-71941168D01*
X103669802Y-72122558D01*
X103664796Y-72299000D01*
X103661976Y-72398421D01*
X103661975Y-72398424D01*
X103600482Y-72667454D01*
X103600481Y-72667456D01*
X103487684Y-72919324D01*
X103441944Y-72983745D01*
X103367950Y-73087961D01*
X102096743Y-74550318D01*
X101953208Y-74685934D01*
X101946413Y-74692354D01*
X101859448Y-74746960D01*
X101712695Y-74839107D01*
X101454835Y-74937446D01*
X101182753Y-74983588D01*
X101046991Y-74979736D01*
X100906888Y-74975762D01*
X100866348Y-74966495D01*
X100637854Y-74914269D01*
X100431630Y-74821912D01*
X100385985Y-74801470D01*
X100160962Y-74641702D01*
X100160959Y-74641700D01*
X99971433Y-74441106D01*
X99824679Y-74207387D01*
X99726340Y-73949527D01*
X99680198Y-73677445D01*
X99685204Y-73501000D01*
X99688024Y-73401580D01*
X99699144Y-73352931D01*
X99749517Y-73132546D01*
X99862315Y-72880680D01*
X99862316Y-72880677D01*
X99982050Y-72712039D01*
X100097275Y-72579488D01*
X100757041Y-71820512D01*
X101253252Y-71249686D01*
X101253256Y-71249682D01*
X101403584Y-71107648D01*
X101637304Y-70960893D01*
X101745586Y-70919599D01*
X101895162Y-70862555D01*
X101985858Y-70847175D01*
X102167248Y-70816412D01*
X102354809Y-70821734D01*
X102354809Y-70821734D01*
G37*
G36*
X83304809Y-70821734D02*
X83393112Y-70824238D01*
X83470990Y-70842039D01*
X83662145Y-70885732D01*
X83758199Y-70928749D01*
X83914014Y-70998530D01*
X84139037Y-71158298D01*
X84139041Y-71158301D01*
X84328566Y-71358894D01*
X84475321Y-71592613D01*
X84521576Y-71713904D01*
X84573659Y-71850472D01*
X84589039Y-71941168D01*
X84619802Y-72122558D01*
X84614796Y-72299000D01*
X84611976Y-72398421D01*
X84611975Y-72398424D01*
X84550482Y-72667454D01*
X84550481Y-72667456D01*
X84437684Y-72919324D01*
X84391944Y-72983745D01*
X84317950Y-73087961D01*
X83046743Y-74550318D01*
X82903208Y-74685934D01*
X82896413Y-74692354D01*
X82809448Y-74746960D01*
X82662695Y-74839107D01*
X82404835Y-74937446D01*
X82132753Y-74983588D01*
X81996991Y-74979736D01*
X81856888Y-74975762D01*
X81816348Y-74966495D01*
X81587854Y-74914269D01*
X81381630Y-74821912D01*
X81335985Y-74801470D01*
X81110962Y-74641702D01*
X81110959Y-74641700D01*
X80921433Y-74441106D01*
X80774679Y-74207387D01*
X80676340Y-73949527D01*
X80630198Y-73677445D01*
X80635204Y-73501000D01*
X80638024Y-73401580D01*
X80649144Y-73352931D01*
X80699517Y-73132546D01*
X80812315Y-72880680D01*
X80812316Y-72880677D01*
X80932050Y-72712039D01*
X81047275Y-72579488D01*
X81707041Y-71820512D01*
X82203252Y-71249686D01*
X82203256Y-71249682D01*
X82353584Y-71107648D01*
X82587304Y-70960893D01*
X82695586Y-70919599D01*
X82845162Y-70862555D01*
X82935858Y-70847175D01*
X83117248Y-70816412D01*
X83304809Y-70821734D01*
X83304809Y-70821734D01*
G37*
G36*
X64254809Y-70821734D02*
X64343112Y-70824238D01*
X64420990Y-70842039D01*
X64612145Y-70885732D01*
X64708199Y-70928749D01*
X64864014Y-70998530D01*
X65089037Y-71158298D01*
X65089041Y-71158301D01*
X65278566Y-71358894D01*
X65425321Y-71592613D01*
X65471576Y-71713904D01*
X65523659Y-71850472D01*
X65539039Y-71941168D01*
X65569802Y-72122558D01*
X65564796Y-72299000D01*
X65561976Y-72398421D01*
X65561975Y-72398424D01*
X65500482Y-72667454D01*
X65500481Y-72667456D01*
X65387684Y-72919324D01*
X65341944Y-72983745D01*
X65267950Y-73087961D01*
X63996743Y-74550318D01*
X63853208Y-74685934D01*
X63846413Y-74692354D01*
X63759448Y-74746960D01*
X63612695Y-74839107D01*
X63354835Y-74937446D01*
X63082753Y-74983588D01*
X62946991Y-74979736D01*
X62806888Y-74975762D01*
X62766348Y-74966495D01*
X62537854Y-74914269D01*
X62331630Y-74821912D01*
X62285985Y-74801470D01*
X62060962Y-74641702D01*
X62060959Y-74641700D01*
X61871433Y-74441106D01*
X61724679Y-74207387D01*
X61626340Y-73949527D01*
X61580198Y-73677445D01*
X61585204Y-73501000D01*
X61588024Y-73401580D01*
X61599144Y-73352931D01*
X61649517Y-73132546D01*
X61762315Y-72880680D01*
X61762316Y-72880677D01*
X61882050Y-72712039D01*
X61997275Y-72579488D01*
X62657041Y-71820512D01*
X63153252Y-71249686D01*
X63153256Y-71249682D01*
X63303584Y-71107648D01*
X63537304Y-70960893D01*
X63645586Y-70919599D01*
X63795162Y-70862555D01*
X63885858Y-70847175D01*
X64067248Y-70816412D01*
X64254809Y-70821734D01*
X64254809Y-70821734D01*
G37*
G36*
X45204809Y-70821734D02*
X45293112Y-70824238D01*
X45370990Y-70842039D01*
X45562145Y-70885732D01*
X45658199Y-70928749D01*
X45814014Y-70998530D01*
X46039037Y-71158298D01*
X46039041Y-71158301D01*
X46228566Y-71358894D01*
X46375321Y-71592613D01*
X46421576Y-71713904D01*
X46473659Y-71850472D01*
X46489039Y-71941168D01*
X46519802Y-72122558D01*
X46514796Y-72299000D01*
X46511976Y-72398421D01*
X46511975Y-72398424D01*
X46450482Y-72667454D01*
X46450481Y-72667456D01*
X46337684Y-72919324D01*
X46291944Y-72983745D01*
X46217950Y-73087961D01*
X44946743Y-74550318D01*
X44803208Y-74685934D01*
X44796413Y-74692354D01*
X44709448Y-74746960D01*
X44562695Y-74839107D01*
X44304835Y-74937446D01*
X44032753Y-74983588D01*
X43896991Y-74979736D01*
X43756888Y-74975762D01*
X43716348Y-74966495D01*
X43487854Y-74914269D01*
X43281630Y-74821912D01*
X43235985Y-74801470D01*
X43010962Y-74641702D01*
X43010959Y-74641700D01*
X42821433Y-74441106D01*
X42674679Y-74207387D01*
X42576340Y-73949527D01*
X42530198Y-73677445D01*
X42535204Y-73501000D01*
X42538024Y-73401580D01*
X42549144Y-73352931D01*
X42599517Y-73132546D01*
X42712315Y-72880680D01*
X42712316Y-72880677D01*
X42832050Y-72712039D01*
X42947275Y-72579488D01*
X43607041Y-71820512D01*
X44103252Y-71249686D01*
X44103256Y-71249682D01*
X44253584Y-71107648D01*
X44487304Y-70960893D01*
X44595586Y-70919599D01*
X44745162Y-70862555D01*
X44835858Y-70847175D01*
X45017248Y-70816412D01*
X45204809Y-70821734D01*
X45204809Y-70821734D01*
G37*
G36*
X107530040Y-69867825D02*
X107775280Y-69942218D01*
X107775282Y-69942219D01*
X108001296Y-70063026D01*
X108199397Y-70225603D01*
X108361976Y-70423706D01*
X108482780Y-70649716D01*
X108482781Y-70649719D01*
X108482782Y-70649721D01*
X108557175Y-70894961D01*
X108576000Y-71086096D01*
X108576000Y-71713905D01*
X108557175Y-71905040D01*
X108482782Y-72150280D01*
X108361976Y-72376293D01*
X108361974Y-72376295D01*
X108199396Y-72574397D01*
X108001295Y-72736974D01*
X108001293Y-72736975D01*
X107775279Y-72857782D01*
X107530039Y-72932175D01*
X107275000Y-72957294D01*
X107019960Y-72932175D01*
X106774720Y-72857782D01*
X106548706Y-72736975D01*
X106463995Y-72667454D01*
X106350603Y-72574396D01*
X106188026Y-72376295D01*
X106067219Y-72150281D01*
X106043431Y-72071863D01*
X105992825Y-71905039D01*
X105974000Y-71713904D01*
X105974000Y-71086095D01*
X105992825Y-70894960D01*
X106067218Y-70649720D01*
X106188025Y-70423706D01*
X106202602Y-70405944D01*
X106350604Y-70225603D01*
X106548705Y-70063026D01*
X106774719Y-69942219D01*
X106774721Y-69942218D01*
X107019961Y-69867825D01*
X107275000Y-69842706D01*
X107530040Y-69867825D01*
X107530040Y-69867825D01*
G37*
G36*
X50380040Y-69867825D02*
X50625280Y-69942218D01*
X50625282Y-69942219D01*
X50851296Y-70063026D01*
X51049397Y-70225603D01*
X51211976Y-70423706D01*
X51332780Y-70649716D01*
X51332781Y-70649719D01*
X51332782Y-70649721D01*
X51407175Y-70894961D01*
X51426000Y-71086096D01*
X51426000Y-71713905D01*
X51407175Y-71905040D01*
X51332782Y-72150280D01*
X51211976Y-72376293D01*
X51211974Y-72376295D01*
X51049396Y-72574397D01*
X50851295Y-72736974D01*
X50851293Y-72736975D01*
X50625279Y-72857782D01*
X50380039Y-72932175D01*
X50125000Y-72957294D01*
X49869960Y-72932175D01*
X49624720Y-72857782D01*
X49398706Y-72736975D01*
X49313995Y-72667454D01*
X49200603Y-72574396D01*
X49038026Y-72376295D01*
X48917219Y-72150281D01*
X48893431Y-72071863D01*
X48842825Y-71905039D01*
X48824000Y-71713904D01*
X48824000Y-71086095D01*
X48842825Y-70894960D01*
X48917218Y-70649720D01*
X49038025Y-70423706D01*
X49052602Y-70405944D01*
X49200604Y-70225603D01*
X49398705Y-70063026D01*
X49624719Y-69942219D01*
X49624721Y-69942218D01*
X49869961Y-69867825D01*
X50125000Y-69842706D01*
X50380040Y-69867825D01*
X50380040Y-69867825D01*
G37*
G36*
X88480040Y-69867825D02*
X88725280Y-69942218D01*
X88725282Y-69942219D01*
X88951296Y-70063026D01*
X89149397Y-70225603D01*
X89311976Y-70423706D01*
X89432780Y-70649716D01*
X89432781Y-70649719D01*
X89432782Y-70649721D01*
X89507175Y-70894961D01*
X89526000Y-71086096D01*
X89526000Y-71713905D01*
X89507175Y-71905040D01*
X89432782Y-72150280D01*
X89311976Y-72376293D01*
X89311974Y-72376295D01*
X89149396Y-72574397D01*
X88951295Y-72736974D01*
X88951293Y-72736975D01*
X88725279Y-72857782D01*
X88480039Y-72932175D01*
X88225000Y-72957294D01*
X87969960Y-72932175D01*
X87724720Y-72857782D01*
X87498706Y-72736975D01*
X87413995Y-72667454D01*
X87300603Y-72574396D01*
X87138026Y-72376295D01*
X87017219Y-72150281D01*
X86993431Y-72071863D01*
X86942825Y-71905039D01*
X86924000Y-71713904D01*
X86924000Y-71086095D01*
X86942825Y-70894960D01*
X87017218Y-70649720D01*
X87138025Y-70423706D01*
X87152602Y-70405944D01*
X87300604Y-70225603D01*
X87498705Y-70063026D01*
X87724719Y-69942219D01*
X87724721Y-69942218D01*
X87969961Y-69867825D01*
X88225000Y-69842706D01*
X88480040Y-69867825D01*
X88480040Y-69867825D01*
G37*
G36*
X69430040Y-69867825D02*
X69675280Y-69942218D01*
X69675282Y-69942219D01*
X69901296Y-70063026D01*
X70099397Y-70225603D01*
X70261976Y-70423706D01*
X70382780Y-70649716D01*
X70382781Y-70649719D01*
X70382782Y-70649721D01*
X70457175Y-70894961D01*
X70476000Y-71086096D01*
X70476000Y-71713905D01*
X70457175Y-71905040D01*
X70382782Y-72150280D01*
X70261976Y-72376293D01*
X70261974Y-72376295D01*
X70099396Y-72574397D01*
X69901295Y-72736974D01*
X69901293Y-72736975D01*
X69675279Y-72857782D01*
X69430039Y-72932175D01*
X69175000Y-72957294D01*
X68919960Y-72932175D01*
X68674720Y-72857782D01*
X68448706Y-72736975D01*
X68363995Y-72667454D01*
X68250603Y-72574396D01*
X68088026Y-72376295D01*
X67967219Y-72150281D01*
X67943431Y-72071863D01*
X67892825Y-71905039D01*
X67874000Y-71713904D01*
X67874000Y-71086095D01*
X67892825Y-70894960D01*
X67967218Y-70649720D01*
X68088025Y-70423706D01*
X68102602Y-70405944D01*
X68250604Y-70225603D01*
X68448705Y-70063026D01*
X68674719Y-69942219D01*
X68674721Y-69942218D01*
X68919961Y-69867825D01*
X69175000Y-69842706D01*
X69430040Y-69867825D01*
X69430040Y-69867825D01*
G37*
G36*
X48221472Y-55183684D02*
X48221474Y-55183685D01*
X48221475Y-55183685D01*
X48593623Y-55337833D01*
X48928548Y-55561623D01*
X49213377Y-55846452D01*
X49437167Y-56181377D01*
X49507322Y-56350747D01*
X49591316Y-56553528D01*
X49669900Y-56948594D01*
X49669900Y-57351406D01*
X49595601Y-57724931D01*
X49591315Y-57746475D01*
X49437167Y-58118623D01*
X49213377Y-58453548D01*
X48928548Y-58738377D01*
X48593623Y-58962167D01*
X48221475Y-59116315D01*
X48221474Y-59116315D01*
X48221472Y-59116316D01*
X47826406Y-59194900D01*
X47423594Y-59194900D01*
X47028528Y-59116316D01*
X47028526Y-59116315D01*
X47028525Y-59116315D01*
X46656377Y-58962167D01*
X46321452Y-58738377D01*
X46036623Y-58453548D01*
X45812833Y-58118623D01*
X45658685Y-57746475D01*
X45654400Y-57724931D01*
X45580100Y-57351406D01*
X45580100Y-56948594D01*
X45658684Y-56553528D01*
X45742678Y-56350747D01*
X45812833Y-56181377D01*
X46036623Y-55846452D01*
X46321452Y-55561623D01*
X46656377Y-55337833D01*
X47028525Y-55183685D01*
X47028526Y-55183685D01*
X47028528Y-55183684D01*
X47423594Y-55105100D01*
X47826406Y-55105100D01*
X48221472Y-55183684D01*
X48221472Y-55183684D01*
G37*
G36*
X105371472Y-55183684D02*
X105371474Y-55183685D01*
X105371475Y-55183685D01*
X105743623Y-55337833D01*
X106078548Y-55561623D01*
X106363377Y-55846452D01*
X106587167Y-56181377D01*
X106657322Y-56350747D01*
X106741316Y-56553528D01*
X106819900Y-56948594D01*
X106819900Y-57351406D01*
X106745601Y-57724931D01*
X106741315Y-57746475D01*
X106587167Y-58118623D01*
X106363377Y-58453548D01*
X106078548Y-58738377D01*
X105743623Y-58962167D01*
X105371475Y-59116315D01*
X105371474Y-59116315D01*
X105371472Y-59116316D01*
X104976406Y-59194900D01*
X104573594Y-59194900D01*
X104178528Y-59116316D01*
X104178526Y-59116315D01*
X104178525Y-59116315D01*
X103806377Y-58962167D01*
X103471452Y-58738377D01*
X103186623Y-58453548D01*
X102962833Y-58118623D01*
X102808685Y-57746475D01*
X102804400Y-57724931D01*
X102730100Y-57351406D01*
X102730100Y-56948594D01*
X102808684Y-56553528D01*
X102892678Y-56350747D01*
X102962833Y-56181377D01*
X103186623Y-55846452D01*
X103471452Y-55561623D01*
X103806377Y-55337833D01*
X104178525Y-55183685D01*
X104178526Y-55183685D01*
X104178528Y-55183684D01*
X104573594Y-55105100D01*
X104976406Y-55105100D01*
X105371472Y-55183684D01*
X105371472Y-55183684D01*
G37*
G36*
X86321472Y-55183684D02*
X86321474Y-55183685D01*
X86321475Y-55183685D01*
X86693623Y-55337833D01*
X87028548Y-55561623D01*
X87313377Y-55846452D01*
X87537167Y-56181377D01*
X87607322Y-56350747D01*
X87691316Y-56553528D01*
X87769900Y-56948594D01*
X87769900Y-57351406D01*
X87695601Y-57724931D01*
X87691315Y-57746475D01*
X87537167Y-58118623D01*
X87313377Y-58453548D01*
X87028548Y-58738377D01*
X86693623Y-58962167D01*
X86321475Y-59116315D01*
X86321474Y-59116315D01*
X86321472Y-59116316D01*
X85926406Y-59194900D01*
X85523594Y-59194900D01*
X85128528Y-59116316D01*
X85128526Y-59116315D01*
X85128525Y-59116315D01*
X84756377Y-58962167D01*
X84421452Y-58738377D01*
X84136623Y-58453548D01*
X83912833Y-58118623D01*
X83758685Y-57746475D01*
X83754400Y-57724931D01*
X83680100Y-57351406D01*
X83680100Y-56948594D01*
X83758684Y-56553528D01*
X83842678Y-56350747D01*
X83912833Y-56181377D01*
X84136623Y-55846452D01*
X84421452Y-55561623D01*
X84756377Y-55337833D01*
X85128525Y-55183685D01*
X85128526Y-55183685D01*
X85128528Y-55183684D01*
X85523594Y-55105100D01*
X85926406Y-55105100D01*
X86321472Y-55183684D01*
X86321472Y-55183684D01*
G37*
G36*
X67271472Y-55183684D02*
X67271474Y-55183685D01*
X67271475Y-55183685D01*
X67643623Y-55337833D01*
X67978548Y-55561623D01*
X68263377Y-55846452D01*
X68487167Y-56181377D01*
X68557322Y-56350747D01*
X68641316Y-56553528D01*
X68719900Y-56948594D01*
X68719900Y-57351406D01*
X68645601Y-57724931D01*
X68641315Y-57746475D01*
X68487167Y-58118623D01*
X68263377Y-58453548D01*
X67978548Y-58738377D01*
X67643623Y-58962167D01*
X67271475Y-59116315D01*
X67271474Y-59116315D01*
X67271472Y-59116316D01*
X66876406Y-59194900D01*
X66473594Y-59194900D01*
X66078528Y-59116316D01*
X66078526Y-59116315D01*
X66078525Y-59116315D01*
X65706377Y-58962167D01*
X65371452Y-58738377D01*
X65086623Y-58453548D01*
X64862833Y-58118623D01*
X64708685Y-57746475D01*
X64704400Y-57724931D01*
X64630100Y-57351406D01*
X64630100Y-56948594D01*
X64708684Y-56553528D01*
X64792678Y-56350747D01*
X64862833Y-56181377D01*
X65086623Y-55846452D01*
X65371452Y-55561623D01*
X65706377Y-55337833D01*
X66078525Y-55183685D01*
X66078526Y-55183685D01*
X66078528Y-55183684D01*
X66473594Y-55105100D01*
X66876406Y-55105100D01*
X67271472Y-55183684D01*
X67271472Y-55183684D01*
G37*
G36*
X110059993Y-56271206D02*
X110118075Y-56282759D01*
X110166149Y-56302672D01*
X110282210Y-56350746D01*
X110429931Y-56449450D01*
X110555550Y-56575069D01*
X110654254Y-56722790D01*
X110722241Y-56886926D01*
X110756900Y-57061169D01*
X110756900Y-57238831D01*
X110722241Y-57413074D01*
X110654254Y-57577210D01*
X110555550Y-57724931D01*
X110429931Y-57850550D01*
X110282210Y-57949254D01*
X110166149Y-57997328D01*
X110118075Y-58017241D01*
X110059993Y-58028794D01*
X109943831Y-58051900D01*
X109766169Y-58051900D01*
X109650007Y-58028794D01*
X109591925Y-58017241D01*
X109543851Y-57997328D01*
X109427790Y-57949254D01*
X109280069Y-57850550D01*
X109154450Y-57724931D01*
X109055746Y-57577210D01*
X108987759Y-57413074D01*
X108953100Y-57238831D01*
X108953100Y-57061169D01*
X108987759Y-56886926D01*
X109055746Y-56722790D01*
X109154450Y-56575069D01*
X109280069Y-56449450D01*
X109427790Y-56350746D01*
X109543851Y-56302672D01*
X109591925Y-56282759D01*
X109650007Y-56271206D01*
X109766169Y-56248100D01*
X109943831Y-56248100D01*
X110059993Y-56271206D01*
X110059993Y-56271206D01*
G37*
G36*
X61799993Y-56271206D02*
X61858075Y-56282759D01*
X61906149Y-56302672D01*
X62022210Y-56350746D01*
X62169931Y-56449450D01*
X62295550Y-56575069D01*
X62394254Y-56722790D01*
X62462241Y-56886926D01*
X62496900Y-57061169D01*
X62496900Y-57238831D01*
X62462241Y-57413074D01*
X62394254Y-57577210D01*
X62295550Y-57724931D01*
X62169931Y-57850550D01*
X62022210Y-57949254D01*
X61906149Y-57997328D01*
X61858075Y-58017241D01*
X61799993Y-58028794D01*
X61683831Y-58051900D01*
X61506169Y-58051900D01*
X61390007Y-58028794D01*
X61331925Y-58017241D01*
X61283851Y-57997328D01*
X61167790Y-57949254D01*
X61020069Y-57850550D01*
X60894450Y-57724931D01*
X60795746Y-57577210D01*
X60727759Y-57413074D01*
X60693100Y-57238831D01*
X60693100Y-57061169D01*
X60727759Y-56886926D01*
X60795746Y-56722790D01*
X60894450Y-56575069D01*
X61020069Y-56449450D01*
X61167790Y-56350746D01*
X61283851Y-56302672D01*
X61331925Y-56282759D01*
X61390007Y-56271206D01*
X61506169Y-56248100D01*
X61683831Y-56248100D01*
X61799993Y-56271206D01*
X61799993Y-56271206D01*
G37*
G36*
X52909993Y-56271206D02*
X52968075Y-56282759D01*
X53016149Y-56302672D01*
X53132210Y-56350746D01*
X53279931Y-56449450D01*
X53405550Y-56575069D01*
X53504254Y-56722790D01*
X53572241Y-56886926D01*
X53606900Y-57061169D01*
X53606900Y-57238831D01*
X53572241Y-57413074D01*
X53504254Y-57577210D01*
X53405550Y-57724931D01*
X53279931Y-57850550D01*
X53132210Y-57949254D01*
X53016149Y-57997328D01*
X52968075Y-58017241D01*
X52909993Y-58028794D01*
X52793831Y-58051900D01*
X52616169Y-58051900D01*
X52500007Y-58028794D01*
X52441925Y-58017241D01*
X52393851Y-57997328D01*
X52277790Y-57949254D01*
X52130069Y-57850550D01*
X52004450Y-57724931D01*
X51905746Y-57577210D01*
X51837759Y-57413074D01*
X51803100Y-57238831D01*
X51803100Y-57061169D01*
X51837759Y-56886926D01*
X51905746Y-56722790D01*
X52004450Y-56575069D01*
X52130069Y-56449450D01*
X52277790Y-56350746D01*
X52393851Y-56302672D01*
X52441925Y-56282759D01*
X52500007Y-56271206D01*
X52616169Y-56248100D01*
X52793831Y-56248100D01*
X52909993Y-56271206D01*
X52909993Y-56271206D01*
G37*
G36*
X42749993Y-56271206D02*
X42808075Y-56282759D01*
X42856149Y-56302672D01*
X42972210Y-56350746D01*
X43119931Y-56449450D01*
X43245550Y-56575069D01*
X43344254Y-56722790D01*
X43412241Y-56886926D01*
X43446900Y-57061169D01*
X43446900Y-57238831D01*
X43412241Y-57413074D01*
X43344254Y-57577210D01*
X43245550Y-57724931D01*
X43119931Y-57850550D01*
X42972210Y-57949254D01*
X42856149Y-57997328D01*
X42808075Y-58017241D01*
X42749993Y-58028794D01*
X42633831Y-58051900D01*
X42456169Y-58051900D01*
X42340007Y-58028794D01*
X42281925Y-58017241D01*
X42233851Y-57997328D01*
X42117790Y-57949254D01*
X41970069Y-57850550D01*
X41844450Y-57724931D01*
X41745746Y-57577210D01*
X41677759Y-57413074D01*
X41643100Y-57238831D01*
X41643100Y-57061169D01*
X41677759Y-56886926D01*
X41745746Y-56722790D01*
X41844450Y-56575069D01*
X41970069Y-56449450D01*
X42117790Y-56350746D01*
X42233851Y-56302672D01*
X42281925Y-56282759D01*
X42340007Y-56271206D01*
X42456169Y-56248100D01*
X42633831Y-56248100D01*
X42749993Y-56271206D01*
X42749993Y-56271206D01*
G37*
G36*
X71959993Y-56271206D02*
X72018075Y-56282759D01*
X72066149Y-56302672D01*
X72182210Y-56350746D01*
X72329931Y-56449450D01*
X72455550Y-56575069D01*
X72554254Y-56722790D01*
X72622241Y-56886926D01*
X72656900Y-57061169D01*
X72656900Y-57238831D01*
X72622241Y-57413074D01*
X72554254Y-57577210D01*
X72455550Y-57724931D01*
X72329931Y-57850550D01*
X72182210Y-57949254D01*
X72066149Y-57997328D01*
X72018075Y-58017241D01*
X71959993Y-58028794D01*
X71843831Y-58051900D01*
X71666169Y-58051900D01*
X71550007Y-58028794D01*
X71491925Y-58017241D01*
X71443851Y-57997328D01*
X71327790Y-57949254D01*
X71180069Y-57850550D01*
X71054450Y-57724931D01*
X70955746Y-57577210D01*
X70887759Y-57413074D01*
X70853100Y-57238831D01*
X70853100Y-57061169D01*
X70887759Y-56886926D01*
X70955746Y-56722790D01*
X71054450Y-56575069D01*
X71180069Y-56449450D01*
X71327790Y-56350746D01*
X71443851Y-56302672D01*
X71491925Y-56282759D01*
X71550007Y-56271206D01*
X71666169Y-56248100D01*
X71843831Y-56248100D01*
X71959993Y-56271206D01*
X71959993Y-56271206D01*
G37*
G36*
X80849993Y-56271206D02*
X80908075Y-56282759D01*
X80956149Y-56302672D01*
X81072210Y-56350746D01*
X81219931Y-56449450D01*
X81345550Y-56575069D01*
X81444254Y-56722790D01*
X81512241Y-56886926D01*
X81546900Y-57061169D01*
X81546900Y-57238831D01*
X81512241Y-57413074D01*
X81444254Y-57577210D01*
X81345550Y-57724931D01*
X81219931Y-57850550D01*
X81072210Y-57949254D01*
X80956149Y-57997328D01*
X80908075Y-58017241D01*
X80849993Y-58028794D01*
X80733831Y-58051900D01*
X80556169Y-58051900D01*
X80440007Y-58028794D01*
X80381925Y-58017241D01*
X80333851Y-57997328D01*
X80217790Y-57949254D01*
X80070069Y-57850550D01*
X79944450Y-57724931D01*
X79845746Y-57577210D01*
X79777759Y-57413074D01*
X79743100Y-57238831D01*
X79743100Y-57061169D01*
X79777759Y-56886926D01*
X79845746Y-56722790D01*
X79944450Y-56575069D01*
X80070069Y-56449450D01*
X80217790Y-56350746D01*
X80333851Y-56302672D01*
X80381925Y-56282759D01*
X80440007Y-56271206D01*
X80556169Y-56248100D01*
X80733831Y-56248100D01*
X80849993Y-56271206D01*
X80849993Y-56271206D01*
G37*
G36*
X99899993Y-56271206D02*
X99958075Y-56282759D01*
X100006149Y-56302672D01*
X100122210Y-56350746D01*
X100269931Y-56449450D01*
X100395550Y-56575069D01*
X100494254Y-56722790D01*
X100562241Y-56886926D01*
X100596900Y-57061169D01*
X100596900Y-57238831D01*
X100562241Y-57413074D01*
X100494254Y-57577210D01*
X100395550Y-57724931D01*
X100269931Y-57850550D01*
X100122210Y-57949254D01*
X100006149Y-57997328D01*
X99958075Y-58017241D01*
X99899993Y-58028794D01*
X99783831Y-58051900D01*
X99606169Y-58051900D01*
X99490007Y-58028794D01*
X99431925Y-58017241D01*
X99383851Y-57997328D01*
X99267790Y-57949254D01*
X99120069Y-57850550D01*
X98994450Y-57724931D01*
X98895746Y-57577210D01*
X98827759Y-57413074D01*
X98793100Y-57238831D01*
X98793100Y-57061169D01*
X98827759Y-56886926D01*
X98895746Y-56722790D01*
X98994450Y-56575069D01*
X99120069Y-56449450D01*
X99267790Y-56350746D01*
X99383851Y-56302672D01*
X99431925Y-56282759D01*
X99490007Y-56271206D01*
X99606169Y-56248100D01*
X99783831Y-56248100D01*
X99899993Y-56271206D01*
X99899993Y-56271206D01*
G37*
G36*
X91009993Y-56271206D02*
X91068075Y-56282759D01*
X91116149Y-56302672D01*
X91232210Y-56350746D01*
X91379931Y-56449450D01*
X91505550Y-56575069D01*
X91604254Y-56722790D01*
X91672241Y-56886926D01*
X91706900Y-57061169D01*
X91706900Y-57238831D01*
X91672241Y-57413074D01*
X91604254Y-57577210D01*
X91505550Y-57724931D01*
X91379931Y-57850550D01*
X91232210Y-57949254D01*
X91116149Y-57997328D01*
X91068075Y-58017241D01*
X91009993Y-58028794D01*
X90893831Y-58051900D01*
X90716169Y-58051900D01*
X90600007Y-58028794D01*
X90541925Y-58017241D01*
X90493851Y-57997328D01*
X90377790Y-57949254D01*
X90230069Y-57850550D01*
X90104450Y-57724931D01*
X90005746Y-57577210D01*
X89937759Y-57413074D01*
X89903100Y-57238831D01*
X89903100Y-57061169D01*
X89937759Y-56886926D01*
X90005746Y-56722790D01*
X90104450Y-56575069D01*
X90230069Y-56449450D01*
X90377790Y-56350746D01*
X90493851Y-56302672D01*
X90541925Y-56282759D01*
X90600007Y-56271206D01*
X90716169Y-56248100D01*
X90893831Y-56248100D01*
X91009993Y-56271206D01*
X91009993Y-56271206D01*
G37*
G36*
X45204809Y-51771734D02*
X45293112Y-51774238D01*
X45370990Y-51792039D01*
X45562145Y-51835732D01*
X45658199Y-51878749D01*
X45814014Y-51948530D01*
X46039037Y-52108298D01*
X46039041Y-52108301D01*
X46228566Y-52308894D01*
X46375321Y-52542613D01*
X46421576Y-52663904D01*
X46473659Y-52800472D01*
X46489039Y-52891168D01*
X46519802Y-53072558D01*
X46514796Y-53249000D01*
X46511976Y-53348421D01*
X46511975Y-53348424D01*
X46450482Y-53617454D01*
X46450481Y-53617456D01*
X46337684Y-53869324D01*
X46291944Y-53933745D01*
X46217950Y-54037961D01*
X44946743Y-55500318D01*
X44803208Y-55635934D01*
X44796413Y-55642354D01*
X44709448Y-55696960D01*
X44562695Y-55789107D01*
X44304835Y-55887446D01*
X44032753Y-55933588D01*
X43896991Y-55929736D01*
X43756888Y-55925762D01*
X43716348Y-55916495D01*
X43487854Y-55864269D01*
X43281630Y-55771912D01*
X43235985Y-55751470D01*
X43010962Y-55591702D01*
X43010959Y-55591700D01*
X42821433Y-55391106D01*
X42674679Y-55157387D01*
X42576340Y-54899527D01*
X42530198Y-54627445D01*
X42535204Y-54451000D01*
X42538024Y-54351580D01*
X42549144Y-54302931D01*
X42599517Y-54082546D01*
X42712315Y-53830680D01*
X42712316Y-53830677D01*
X42832050Y-53662039D01*
X42947275Y-53529488D01*
X43607041Y-52770512D01*
X44103252Y-52199686D01*
X44103256Y-52199682D01*
X44253584Y-52057648D01*
X44487304Y-51910893D01*
X44595586Y-51869599D01*
X44745162Y-51812555D01*
X44835858Y-51797175D01*
X45017248Y-51766412D01*
X45204809Y-51771734D01*
X45204809Y-51771734D01*
G37*
G36*
X83304809Y-51771734D02*
X83393112Y-51774238D01*
X83470990Y-51792039D01*
X83662145Y-51835732D01*
X83758199Y-51878749D01*
X83914014Y-51948530D01*
X84139037Y-52108298D01*
X84139041Y-52108301D01*
X84328566Y-52308894D01*
X84475321Y-52542613D01*
X84521576Y-52663904D01*
X84573659Y-52800472D01*
X84589039Y-52891168D01*
X84619802Y-53072558D01*
X84614796Y-53249000D01*
X84611976Y-53348421D01*
X84611975Y-53348424D01*
X84550482Y-53617454D01*
X84550481Y-53617456D01*
X84437684Y-53869324D01*
X84391944Y-53933745D01*
X84317950Y-54037961D01*
X83046743Y-55500318D01*
X82903208Y-55635934D01*
X82896413Y-55642354D01*
X82809448Y-55696960D01*
X82662695Y-55789107D01*
X82404835Y-55887446D01*
X82132753Y-55933588D01*
X81996991Y-55929736D01*
X81856888Y-55925762D01*
X81816348Y-55916495D01*
X81587854Y-55864269D01*
X81381630Y-55771912D01*
X81335985Y-55751470D01*
X81110962Y-55591702D01*
X81110959Y-55591700D01*
X80921433Y-55391106D01*
X80774679Y-55157387D01*
X80676340Y-54899527D01*
X80630198Y-54627445D01*
X80635204Y-54451000D01*
X80638024Y-54351580D01*
X80649144Y-54302931D01*
X80699517Y-54082546D01*
X80812315Y-53830680D01*
X80812316Y-53830677D01*
X80932050Y-53662039D01*
X81047275Y-53529488D01*
X81707041Y-52770512D01*
X82203252Y-52199686D01*
X82203256Y-52199682D01*
X82353584Y-52057648D01*
X82587304Y-51910893D01*
X82695586Y-51869599D01*
X82845162Y-51812555D01*
X82935858Y-51797175D01*
X83117248Y-51766412D01*
X83304809Y-51771734D01*
X83304809Y-51771734D01*
G37*
G36*
X102354809Y-51771734D02*
X102443112Y-51774238D01*
X102520990Y-51792039D01*
X102712145Y-51835732D01*
X102808199Y-51878749D01*
X102964014Y-51948530D01*
X103189037Y-52108298D01*
X103189041Y-52108301D01*
X103378566Y-52308894D01*
X103525321Y-52542613D01*
X103571576Y-52663904D01*
X103623659Y-52800472D01*
X103639039Y-52891168D01*
X103669802Y-53072558D01*
X103664796Y-53249000D01*
X103661976Y-53348421D01*
X103661975Y-53348424D01*
X103600482Y-53617454D01*
X103600481Y-53617456D01*
X103487684Y-53869324D01*
X103441944Y-53933745D01*
X103367950Y-54037961D01*
X102096743Y-55500318D01*
X101953208Y-55635934D01*
X101946413Y-55642354D01*
X101859448Y-55696960D01*
X101712695Y-55789107D01*
X101454835Y-55887446D01*
X101182753Y-55933588D01*
X101046991Y-55929736D01*
X100906888Y-55925762D01*
X100866348Y-55916495D01*
X100637854Y-55864269D01*
X100431630Y-55771912D01*
X100385985Y-55751470D01*
X100160962Y-55591702D01*
X100160959Y-55591700D01*
X99971433Y-55391106D01*
X99824679Y-55157387D01*
X99726340Y-54899527D01*
X99680198Y-54627445D01*
X99685204Y-54451000D01*
X99688024Y-54351580D01*
X99699144Y-54302931D01*
X99749517Y-54082546D01*
X99862315Y-53830680D01*
X99862316Y-53830677D01*
X99982050Y-53662039D01*
X100097275Y-53529488D01*
X100757041Y-52770512D01*
X101253252Y-52199686D01*
X101253256Y-52199682D01*
X101403584Y-52057648D01*
X101637304Y-51910893D01*
X101745586Y-51869599D01*
X101895162Y-51812555D01*
X101985858Y-51797175D01*
X102167248Y-51766412D01*
X102354809Y-51771734D01*
X102354809Y-51771734D01*
G37*
G36*
X64254809Y-51771734D02*
X64343112Y-51774238D01*
X64420990Y-51792039D01*
X64612145Y-51835732D01*
X64708199Y-51878749D01*
X64864014Y-51948530D01*
X65089037Y-52108298D01*
X65089041Y-52108301D01*
X65278566Y-52308894D01*
X65425321Y-52542613D01*
X65471576Y-52663904D01*
X65523659Y-52800472D01*
X65539039Y-52891168D01*
X65569802Y-53072558D01*
X65564796Y-53249000D01*
X65561976Y-53348421D01*
X65561975Y-53348424D01*
X65500482Y-53617454D01*
X65500481Y-53617456D01*
X65387684Y-53869324D01*
X65341944Y-53933745D01*
X65267950Y-54037961D01*
X63996743Y-55500318D01*
X63853208Y-55635934D01*
X63846413Y-55642354D01*
X63759448Y-55696960D01*
X63612695Y-55789107D01*
X63354835Y-55887446D01*
X63082753Y-55933588D01*
X62946991Y-55929736D01*
X62806888Y-55925762D01*
X62766348Y-55916495D01*
X62537854Y-55864269D01*
X62331630Y-55771912D01*
X62285985Y-55751470D01*
X62060962Y-55591702D01*
X62060959Y-55591700D01*
X61871433Y-55391106D01*
X61724679Y-55157387D01*
X61626340Y-54899527D01*
X61580198Y-54627445D01*
X61585204Y-54451000D01*
X61588024Y-54351580D01*
X61599144Y-54302931D01*
X61649517Y-54082546D01*
X61762315Y-53830680D01*
X61762316Y-53830677D01*
X61882050Y-53662039D01*
X61997275Y-53529488D01*
X62657041Y-52770512D01*
X63153252Y-52199686D01*
X63153256Y-52199682D01*
X63303584Y-52057648D01*
X63537304Y-51910893D01*
X63645586Y-51869599D01*
X63795162Y-51812555D01*
X63885858Y-51797175D01*
X64067248Y-51766412D01*
X64254809Y-51771734D01*
X64254809Y-51771734D01*
G37*
G36*
X50380040Y-50817825D02*
X50625280Y-50892218D01*
X50625282Y-50892219D01*
X50851296Y-51013026D01*
X51049397Y-51175603D01*
X51211976Y-51373706D01*
X51332780Y-51599716D01*
X51332781Y-51599719D01*
X51332782Y-51599721D01*
X51407175Y-51844961D01*
X51426000Y-52036096D01*
X51426000Y-52663905D01*
X51407175Y-52855040D01*
X51332782Y-53100280D01*
X51211976Y-53326293D01*
X51211974Y-53326295D01*
X51049396Y-53524397D01*
X50851295Y-53686974D01*
X50851293Y-53686975D01*
X50625279Y-53807782D01*
X50380039Y-53882175D01*
X50125000Y-53907294D01*
X49869960Y-53882175D01*
X49624720Y-53807782D01*
X49398706Y-53686975D01*
X49313995Y-53617454D01*
X49200603Y-53524396D01*
X49038026Y-53326295D01*
X48917219Y-53100281D01*
X48893431Y-53021863D01*
X48842825Y-52855039D01*
X48824000Y-52663904D01*
X48824000Y-52036095D01*
X48842825Y-51844960D01*
X48917218Y-51599720D01*
X49038025Y-51373706D01*
X49052602Y-51355944D01*
X49200604Y-51175603D01*
X49398705Y-51013026D01*
X49624719Y-50892219D01*
X49624721Y-50892218D01*
X49869961Y-50817825D01*
X50125000Y-50792706D01*
X50380040Y-50817825D01*
X50380040Y-50817825D01*
G37*
G36*
X69430040Y-50817825D02*
X69675280Y-50892218D01*
X69675282Y-50892219D01*
X69901296Y-51013026D01*
X70099397Y-51175603D01*
X70261976Y-51373706D01*
X70382780Y-51599716D01*
X70382781Y-51599719D01*
X70382782Y-51599721D01*
X70457175Y-51844961D01*
X70476000Y-52036096D01*
X70476000Y-52663905D01*
X70457175Y-52855040D01*
X70382782Y-53100280D01*
X70261976Y-53326293D01*
X70261974Y-53326295D01*
X70099396Y-53524397D01*
X69901295Y-53686974D01*
X69901293Y-53686975D01*
X69675279Y-53807782D01*
X69430039Y-53882175D01*
X69175000Y-53907294D01*
X68919960Y-53882175D01*
X68674720Y-53807782D01*
X68448706Y-53686975D01*
X68363995Y-53617454D01*
X68250603Y-53524396D01*
X68088026Y-53326295D01*
X67967219Y-53100281D01*
X67943431Y-53021863D01*
X67892825Y-52855039D01*
X67874000Y-52663904D01*
X67874000Y-52036095D01*
X67892825Y-51844960D01*
X67967218Y-51599720D01*
X68088025Y-51373706D01*
X68102602Y-51355944D01*
X68250604Y-51175603D01*
X68448705Y-51013026D01*
X68674719Y-50892219D01*
X68674721Y-50892218D01*
X68919961Y-50817825D01*
X69175000Y-50792706D01*
X69430040Y-50817825D01*
X69430040Y-50817825D01*
G37*
G36*
X107530040Y-50817825D02*
X107775280Y-50892218D01*
X107775282Y-50892219D01*
X108001296Y-51013026D01*
X108199397Y-51175603D01*
X108361976Y-51373706D01*
X108482780Y-51599716D01*
X108482781Y-51599719D01*
X108482782Y-51599721D01*
X108557175Y-51844961D01*
X108576000Y-52036096D01*
X108576000Y-52663905D01*
X108557175Y-52855040D01*
X108482782Y-53100280D01*
X108361976Y-53326293D01*
X108361974Y-53326295D01*
X108199396Y-53524397D01*
X108001295Y-53686974D01*
X108001293Y-53686975D01*
X107775279Y-53807782D01*
X107530039Y-53882175D01*
X107275000Y-53907294D01*
X107019960Y-53882175D01*
X106774720Y-53807782D01*
X106548706Y-53686975D01*
X106463995Y-53617454D01*
X106350603Y-53524396D01*
X106188026Y-53326295D01*
X106067219Y-53100281D01*
X106043431Y-53021863D01*
X105992825Y-52855039D01*
X105974000Y-52663904D01*
X105974000Y-52036095D01*
X105992825Y-51844960D01*
X106067218Y-51599720D01*
X106188025Y-51373706D01*
X106202602Y-51355944D01*
X106350604Y-51175603D01*
X106548705Y-51013026D01*
X106774719Y-50892219D01*
X106774721Y-50892218D01*
X107019961Y-50817825D01*
X107275000Y-50792706D01*
X107530040Y-50817825D01*
X107530040Y-50817825D01*
G37*
G36*
X88480040Y-50817825D02*
X88725280Y-50892218D01*
X88725282Y-50892219D01*
X88951296Y-51013026D01*
X89149397Y-51175603D01*
X89311976Y-51373706D01*
X89432780Y-51599716D01*
X89432781Y-51599719D01*
X89432782Y-51599721D01*
X89507175Y-51844961D01*
X89526000Y-52036096D01*
X89526000Y-52663905D01*
X89507175Y-52855040D01*
X89432782Y-53100280D01*
X89311976Y-53326293D01*
X89311974Y-53326295D01*
X89149396Y-53524397D01*
X88951295Y-53686974D01*
X88951293Y-53686975D01*
X88725279Y-53807782D01*
X88480039Y-53882175D01*
X88225000Y-53907294D01*
X87969960Y-53882175D01*
X87724720Y-53807782D01*
X87498706Y-53686975D01*
X87413995Y-53617454D01*
X87300603Y-53524396D01*
X87138026Y-53326295D01*
X87017219Y-53100281D01*
X86993431Y-53021863D01*
X86942825Y-52855039D01*
X86924000Y-52663904D01*
X86924000Y-52036095D01*
X86942825Y-51844960D01*
X87017218Y-51599720D01*
X87138025Y-51373706D01*
X87152602Y-51355944D01*
X87300604Y-51175603D01*
X87498705Y-51013026D01*
X87724719Y-50892219D01*
X87724721Y-50892218D01*
X87969961Y-50817825D01*
X88225000Y-50792706D01*
X88480040Y-50817825D01*
X88480040Y-50817825D01*
G37*
G36*
X56218621Y-41779302D02*
X56355022Y-41835801D01*
X56477779Y-41917825D01*
X56582175Y-42022221D01*
X56664199Y-42144978D01*
X56720698Y-42281379D01*
X56749500Y-42426181D01*
X56749500Y-42573819D01*
X56720698Y-42718621D01*
X56664199Y-42855022D01*
X56582175Y-42977779D01*
X56477779Y-43082175D01*
X56355022Y-43164199D01*
X56218621Y-43220698D01*
X56073819Y-43249500D01*
X55926181Y-43249500D01*
X55781379Y-43220698D01*
X55644978Y-43164199D01*
X55522221Y-43082175D01*
X55417825Y-42977779D01*
X55335801Y-42855022D01*
X55279302Y-42718621D01*
X55250500Y-42573819D01*
X55250500Y-42426181D01*
X55279302Y-42281379D01*
X55335801Y-42144978D01*
X55417825Y-42022221D01*
X55522221Y-41917825D01*
X55644978Y-41835801D01*
X55781379Y-41779302D01*
X55926181Y-41750500D01*
X56073819Y-41750500D01*
X56218621Y-41779302D01*
X56218621Y-41779302D01*
G37*
G36*
X45806991Y-40026101D02*
X45892321Y-40034505D01*
X46029172Y-40076019D01*
X46029174Y-40076020D01*
X46029177Y-40076021D01*
X46155296Y-40143432D01*
X46265843Y-40234157D01*
X46356568Y-40344704D01*
X46423979Y-40470823D01*
X46423980Y-40470826D01*
X46423981Y-40470828D01*
X46465495Y-40607679D01*
X46479512Y-40750000D01*
X46465495Y-40892321D01*
X46423981Y-41029172D01*
X46423979Y-41029177D01*
X46356568Y-41155296D01*
X46265843Y-41265843D01*
X46155296Y-41356568D01*
X46029177Y-41423979D01*
X46029174Y-41423980D01*
X46029172Y-41423981D01*
X45892321Y-41465495D01*
X45806991Y-41473899D01*
X45785660Y-41476000D01*
X45714340Y-41476000D01*
X45693009Y-41473899D01*
X45607679Y-41465495D01*
X45470828Y-41423981D01*
X45470826Y-41423980D01*
X45470823Y-41423979D01*
X45344704Y-41356568D01*
X45234157Y-41265843D01*
X45143432Y-41155296D01*
X45076021Y-41029177D01*
X45076019Y-41029172D01*
X45034505Y-40892321D01*
X45020488Y-40750000D01*
X45034505Y-40607679D01*
X45076019Y-40470828D01*
X45076020Y-40470826D01*
X45076021Y-40470823D01*
X45143432Y-40344704D01*
X45234157Y-40234157D01*
X45344704Y-40143432D01*
X45470823Y-40076021D01*
X45470826Y-40076020D01*
X45470828Y-40076019D01*
X45607679Y-40034505D01*
X45693009Y-40026101D01*
X45714340Y-40024000D01*
X45785660Y-40024000D01*
X45806991Y-40026101D01*
X45806991Y-40026101D01*
G37*
G36*
X43806991Y-40026101D02*
X43892321Y-40034505D01*
X44029172Y-40076019D01*
X44029174Y-40076020D01*
X44029177Y-40076021D01*
X44155296Y-40143432D01*
X44265843Y-40234157D01*
X44356568Y-40344704D01*
X44423979Y-40470823D01*
X44423980Y-40470826D01*
X44423981Y-40470828D01*
X44465495Y-40607679D01*
X44479512Y-40750000D01*
X44465495Y-40892321D01*
X44423981Y-41029172D01*
X44423979Y-41029177D01*
X44356568Y-41155296D01*
X44265843Y-41265843D01*
X44155296Y-41356568D01*
X44029177Y-41423979D01*
X44029174Y-41423980D01*
X44029172Y-41423981D01*
X43892321Y-41465495D01*
X43806991Y-41473899D01*
X43785660Y-41476000D01*
X43714340Y-41476000D01*
X43693009Y-41473899D01*
X43607679Y-41465495D01*
X43470828Y-41423981D01*
X43470826Y-41423980D01*
X43470823Y-41423979D01*
X43344704Y-41356568D01*
X43234157Y-41265843D01*
X43143432Y-41155296D01*
X43076021Y-41029177D01*
X43076019Y-41029172D01*
X43034505Y-40892321D01*
X43020488Y-40750000D01*
X43034505Y-40607679D01*
X43076019Y-40470828D01*
X43076020Y-40470826D01*
X43076021Y-40470823D01*
X43143432Y-40344704D01*
X43234157Y-40234157D01*
X43344704Y-40143432D01*
X43470823Y-40076021D01*
X43470826Y-40076020D01*
X43470828Y-40076019D01*
X43607679Y-40034505D01*
X43693009Y-40026101D01*
X43714340Y-40024000D01*
X43785660Y-40024000D01*
X43806991Y-40026101D01*
X43806991Y-40026101D01*
G37*
G36*
X56218621Y-39239302D02*
X56355022Y-39295801D01*
X56477779Y-39377825D01*
X56582175Y-39482221D01*
X56664199Y-39604978D01*
X56720698Y-39741379D01*
X56749500Y-39886181D01*
X56749500Y-40033819D01*
X56720698Y-40178621D01*
X56664199Y-40315022D01*
X56582175Y-40437779D01*
X56477779Y-40542175D01*
X56355022Y-40624199D01*
X56218621Y-40680698D01*
X56073819Y-40709500D01*
X55926181Y-40709500D01*
X55781379Y-40680698D01*
X55644978Y-40624199D01*
X55522221Y-40542175D01*
X55417825Y-40437779D01*
X55335801Y-40315022D01*
X55279302Y-40178621D01*
X55250500Y-40033819D01*
X55250500Y-39886181D01*
X55279302Y-39741379D01*
X55335801Y-39604978D01*
X55417825Y-39482221D01*
X55522221Y-39377825D01*
X55644978Y-39295801D01*
X55781379Y-39239302D01*
X55926181Y-39210500D01*
X56073819Y-39210500D01*
X56218621Y-39239302D01*
X56218621Y-39239302D01*
G37*
G36*
X43806991Y-38026101D02*
X43892321Y-38034505D01*
X44029172Y-38076019D01*
X44029174Y-38076020D01*
X44029177Y-38076021D01*
X44155296Y-38143432D01*
X44265843Y-38234157D01*
X44356568Y-38344704D01*
X44423979Y-38470823D01*
X44423980Y-38470826D01*
X44423981Y-38470828D01*
X44465495Y-38607679D01*
X44479512Y-38750000D01*
X44465495Y-38892321D01*
X44423981Y-39029172D01*
X44423979Y-39029177D01*
X44356568Y-39155296D01*
X44265843Y-39265843D01*
X44155296Y-39356568D01*
X44029177Y-39423979D01*
X44029174Y-39423980D01*
X44029172Y-39423981D01*
X43892321Y-39465495D01*
X43806991Y-39473899D01*
X43785660Y-39476000D01*
X43714340Y-39476000D01*
X43693009Y-39473899D01*
X43607679Y-39465495D01*
X43470828Y-39423981D01*
X43470826Y-39423980D01*
X43470823Y-39423979D01*
X43344704Y-39356568D01*
X43234157Y-39265843D01*
X43143432Y-39155296D01*
X43076021Y-39029177D01*
X43076019Y-39029172D01*
X43034505Y-38892321D01*
X43020488Y-38750000D01*
X43034505Y-38607679D01*
X43076019Y-38470828D01*
X43076020Y-38470826D01*
X43076021Y-38470823D01*
X43143432Y-38344704D01*
X43234157Y-38234157D01*
X43344704Y-38143432D01*
X43470823Y-38076021D01*
X43470826Y-38076020D01*
X43470828Y-38076019D01*
X43607679Y-38034505D01*
X43693009Y-38026101D01*
X43714340Y-38024000D01*
X43785660Y-38024000D01*
X43806991Y-38026101D01*
X43806991Y-38026101D01*
G37*
G36*
X45806991Y-38026101D02*
X45892321Y-38034505D01*
X46029172Y-38076019D01*
X46029174Y-38076020D01*
X46029177Y-38076021D01*
X46155296Y-38143432D01*
X46265843Y-38234157D01*
X46356568Y-38344704D01*
X46423979Y-38470823D01*
X46423980Y-38470826D01*
X46423981Y-38470828D01*
X46465495Y-38607679D01*
X46479512Y-38750000D01*
X46465495Y-38892321D01*
X46423981Y-39029172D01*
X46423979Y-39029177D01*
X46356568Y-39155296D01*
X46265843Y-39265843D01*
X46155296Y-39356568D01*
X46029177Y-39423979D01*
X46029174Y-39423980D01*
X46029172Y-39423981D01*
X45892321Y-39465495D01*
X45806991Y-39473899D01*
X45785660Y-39476000D01*
X45714340Y-39476000D01*
X45693009Y-39473899D01*
X45607679Y-39465495D01*
X45470828Y-39423981D01*
X45470826Y-39423980D01*
X45470823Y-39423979D01*
X45344704Y-39356568D01*
X45234157Y-39265843D01*
X45143432Y-39155296D01*
X45076021Y-39029177D01*
X45076019Y-39029172D01*
X45034505Y-38892321D01*
X45020488Y-38750000D01*
X45034505Y-38607679D01*
X45076019Y-38470828D01*
X45076020Y-38470826D01*
X45076021Y-38470823D01*
X45143432Y-38344704D01*
X45234157Y-38234157D01*
X45344704Y-38143432D01*
X45470823Y-38076021D01*
X45470826Y-38076020D01*
X45470828Y-38076019D01*
X45607679Y-38034505D01*
X45693009Y-38026101D01*
X45714340Y-38024000D01*
X45785660Y-38024000D01*
X45806991Y-38026101D01*
X45806991Y-38026101D01*
G37*
G36*
X56218621Y-36699302D02*
X56355022Y-36755801D01*
X56477779Y-36837825D01*
X56582175Y-36942221D01*
X56664199Y-37064978D01*
X56720698Y-37201379D01*
X56749500Y-37346181D01*
X56749500Y-37493819D01*
X56720698Y-37638621D01*
X56664199Y-37775022D01*
X56582175Y-37897779D01*
X56477779Y-38002175D01*
X56355022Y-38084199D01*
X56218621Y-38140698D01*
X56073819Y-38169500D01*
X55926181Y-38169500D01*
X55781379Y-38140698D01*
X55644978Y-38084199D01*
X55522221Y-38002175D01*
X55417825Y-37897779D01*
X55335801Y-37775022D01*
X55279302Y-37638621D01*
X55250500Y-37493819D01*
X55250500Y-37346181D01*
X55279302Y-37201379D01*
X55335801Y-37064978D01*
X55417825Y-36942221D01*
X55522221Y-36837825D01*
X55644978Y-36755801D01*
X55781379Y-36699302D01*
X55926181Y-36670500D01*
X56073819Y-36670500D01*
X56218621Y-36699302D01*
X56218621Y-36699302D01*
G37*
G36*
X45806991Y-36026101D02*
X45892321Y-36034505D01*
X46029172Y-36076019D01*
X46029174Y-36076020D01*
X46029177Y-36076021D01*
X46155296Y-36143432D01*
X46265843Y-36234157D01*
X46356568Y-36344704D01*
X46423979Y-36470823D01*
X46423980Y-36470826D01*
X46423981Y-36470828D01*
X46465495Y-36607679D01*
X46479512Y-36750000D01*
X46465495Y-36892321D01*
X46423981Y-37029172D01*
X46423979Y-37029177D01*
X46356568Y-37155296D01*
X46265843Y-37265843D01*
X46155296Y-37356568D01*
X46029177Y-37423979D01*
X46029174Y-37423980D01*
X46029172Y-37423981D01*
X45892321Y-37465495D01*
X45806991Y-37473899D01*
X45785660Y-37476000D01*
X45714340Y-37476000D01*
X45693009Y-37473899D01*
X45607679Y-37465495D01*
X45470828Y-37423981D01*
X45470826Y-37423980D01*
X45470823Y-37423979D01*
X45344704Y-37356568D01*
X45234157Y-37265843D01*
X45143432Y-37155296D01*
X45076021Y-37029177D01*
X45076019Y-37029172D01*
X45034505Y-36892321D01*
X45020488Y-36750000D01*
X45034505Y-36607679D01*
X45076019Y-36470828D01*
X45076020Y-36470826D01*
X45076021Y-36470823D01*
X45143432Y-36344704D01*
X45234157Y-36234157D01*
X45344704Y-36143432D01*
X45470823Y-36076021D01*
X45470826Y-36076020D01*
X45470828Y-36076019D01*
X45607679Y-36034505D01*
X45693009Y-36026101D01*
X45714340Y-36024000D01*
X45785660Y-36024000D01*
X45806991Y-36026101D01*
X45806991Y-36026101D01*
G37*
G36*
X44476000Y-37476000D02*
X43024000Y-37476000D01*
X43024000Y-36024000D01*
X44476000Y-36024000D01*
X44476000Y-37476000D01*
X44476000Y-37476000D01*
G37*
G36*
X56218621Y-34159302D02*
X56355022Y-34215801D01*
X56477779Y-34297825D01*
X56582175Y-34402221D01*
X56664199Y-34524978D01*
X56720698Y-34661379D01*
X56749500Y-34806181D01*
X56749500Y-34953819D01*
X56720698Y-35098621D01*
X56664199Y-35235022D01*
X56582175Y-35357779D01*
X56477779Y-35462175D01*
X56355022Y-35544199D01*
X56218621Y-35600698D01*
X56073819Y-35629500D01*
X55926181Y-35629500D01*
X55781379Y-35600698D01*
X55644978Y-35544199D01*
X55522221Y-35462175D01*
X55417825Y-35357779D01*
X55335801Y-35235022D01*
X55279302Y-35098621D01*
X55250500Y-34953819D01*
X55250500Y-34806181D01*
X55279302Y-34661379D01*
X55335801Y-34524978D01*
X55417825Y-34402221D01*
X55522221Y-34297825D01*
X55644978Y-34215801D01*
X55781379Y-34159302D01*
X55926181Y-34130500D01*
X56073819Y-34130500D01*
X56218621Y-34159302D01*
X56218621Y-34159302D01*
G37*
G36*
X42375256Y-25191298D02*
X42481579Y-25212447D01*
X42782042Y-25336903D01*
X43048852Y-25515180D01*
X43052454Y-25517587D01*
X43282413Y-25747546D01*
X43463098Y-26017960D01*
X43587553Y-26318422D01*
X43651000Y-26637389D01*
X43651000Y-26962611D01*
X43587553Y-27281578D01*
X43463098Y-27582040D01*
X43282413Y-27852454D01*
X43052454Y-28082413D01*
X43052451Y-28082415D01*
X42782042Y-28263097D01*
X42481579Y-28387553D01*
X42375256Y-28408702D01*
X42162611Y-28451000D01*
X41837389Y-28451000D01*
X41624744Y-28408702D01*
X41518421Y-28387553D01*
X41217958Y-28263097D01*
X40947549Y-28082415D01*
X40947546Y-28082413D01*
X40717587Y-27852454D01*
X40536902Y-27582040D01*
X40412447Y-27281578D01*
X40349000Y-26962611D01*
X40349000Y-26637389D01*
X40412447Y-26318422D01*
X40536902Y-26017960D01*
X40717587Y-25747546D01*
X40947546Y-25517587D01*
X40951148Y-25515180D01*
X41217958Y-25336903D01*
X41518421Y-25212447D01*
X41624744Y-25191298D01*
X41837389Y-25149000D01*
X42162611Y-25149000D01*
X42375256Y-25191298D01*
X42375256Y-25191298D01*
G37*
G36*
X110775256Y-25191298D02*
X110881579Y-25212447D01*
X111182042Y-25336903D01*
X111448852Y-25515180D01*
X111452454Y-25517587D01*
X111682413Y-25747546D01*
X111863098Y-26017960D01*
X111987553Y-26318422D01*
X112051000Y-26637389D01*
X112051000Y-26962611D01*
X111987553Y-27281578D01*
X111863098Y-27582040D01*
X111682413Y-27852454D01*
X111452454Y-28082413D01*
X111452451Y-28082415D01*
X111182042Y-28263097D01*
X110881579Y-28387553D01*
X110775256Y-28408702D01*
X110562611Y-28451000D01*
X110237389Y-28451000D01*
X110024744Y-28408702D01*
X109918421Y-28387553D01*
X109617958Y-28263097D01*
X109347549Y-28082415D01*
X109347546Y-28082413D01*
X109117587Y-27852454D01*
X108936902Y-27582040D01*
X108812447Y-27281578D01*
X108749000Y-26962611D01*
X108749000Y-26637389D01*
X108812447Y-26318422D01*
X108936902Y-26017960D01*
X109117587Y-25747546D01*
X109347546Y-25517587D01*
X109351148Y-25515180D01*
X109617958Y-25336903D01*
X109918421Y-25212447D01*
X110024744Y-25191298D01*
X110237389Y-25149000D01*
X110562611Y-25149000D01*
X110775256Y-25191298D01*
X110775256Y-25191298D01*
G37*
G36*
X80678014Y-23186973D02*
X80781878Y-23218479D01*
X80877600Y-23269644D01*
X80961501Y-23338499D01*
X81030356Y-23422400D01*
X81081521Y-23518121D01*
X81113027Y-23621985D01*
X81121000Y-23702933D01*
X81121000Y-24857067D01*
X81113027Y-24938015D01*
X81081521Y-25041879D01*
X81030356Y-25137600D01*
X80961501Y-25221501D01*
X80877600Y-25290356D01*
X80781879Y-25341521D01*
X80678015Y-25373027D01*
X80570000Y-25383666D01*
X80461986Y-25373027D01*
X80358122Y-25341521D01*
X80262401Y-25290356D01*
X80178500Y-25221501D01*
X80109645Y-25137600D01*
X80058480Y-25041879D01*
X80026974Y-24938015D01*
X80019001Y-24857067D01*
X80019000Y-23702934D01*
X80026973Y-23621986D01*
X80058479Y-23518122D01*
X80109644Y-23422400D01*
X80178499Y-23338499D01*
X80262400Y-23269644D01*
X80358121Y-23218479D01*
X80461985Y-23186973D01*
X80570000Y-23176334D01*
X80678014Y-23186973D01*
X80678014Y-23186973D01*
G37*
G36*
X72038014Y-23186973D02*
X72141878Y-23218479D01*
X72237600Y-23269644D01*
X72321501Y-23338499D01*
X72390356Y-23422400D01*
X72441521Y-23518121D01*
X72473027Y-23621985D01*
X72481000Y-23702933D01*
X72481000Y-24857067D01*
X72473027Y-24938015D01*
X72441521Y-25041879D01*
X72390356Y-25137600D01*
X72321501Y-25221501D01*
X72237600Y-25290356D01*
X72141879Y-25341521D01*
X72038015Y-25373027D01*
X71930000Y-25383666D01*
X71821986Y-25373027D01*
X71718122Y-25341521D01*
X71622401Y-25290356D01*
X71538500Y-25221501D01*
X71469645Y-25137600D01*
X71418480Y-25041879D01*
X71386974Y-24938015D01*
X71379001Y-24857067D01*
X71379000Y-23702934D01*
X71386973Y-23621986D01*
X71418479Y-23518122D01*
X71469644Y-23422400D01*
X71538499Y-23338499D01*
X71622400Y-23269644D01*
X71718121Y-23218479D01*
X71821985Y-23186973D01*
X71930000Y-23176334D01*
X72038014Y-23186973D01*
X72038014Y-23186973D01*
G37*
G36*
X79249672Y-23388449D02*
X79249674Y-23388450D01*
X79249675Y-23388450D01*
X79318103Y-23416793D01*
X79379409Y-23457757D01*
X79379689Y-23457944D01*
X79432056Y-23510311D01*
X79432058Y-23510314D01*
X79473207Y-23571897D01*
X79501550Y-23640325D01*
X79501551Y-23640328D01*
X79516000Y-23712966D01*
X79516000Y-23787033D01*
X79501550Y-23859675D01*
X79473207Y-23928103D01*
X79432243Y-23989409D01*
X79432056Y-23989689D01*
X79379689Y-24042056D01*
X79379686Y-24042058D01*
X79318103Y-24083207D01*
X79249675Y-24111550D01*
X79249674Y-24111550D01*
X79249672Y-24111551D01*
X79177034Y-24126000D01*
X79102966Y-24126000D01*
X79030328Y-24111551D01*
X79030326Y-24111550D01*
X79030325Y-24111550D01*
X78961897Y-24083207D01*
X78900314Y-24042058D01*
X78900311Y-24042056D01*
X78847944Y-23989689D01*
X78847757Y-23989409D01*
X78806793Y-23928103D01*
X78778450Y-23859675D01*
X78764000Y-23787033D01*
X78764000Y-23712966D01*
X78778449Y-23640328D01*
X78778450Y-23640325D01*
X78806793Y-23571897D01*
X78847942Y-23510314D01*
X78847944Y-23510311D01*
X78900311Y-23457944D01*
X78900591Y-23457757D01*
X78961897Y-23416793D01*
X79030325Y-23388450D01*
X79030326Y-23388450D01*
X79030328Y-23388449D01*
X79102966Y-23374000D01*
X79177034Y-23374000D01*
X79249672Y-23388449D01*
X79249672Y-23388449D01*
G37*
G36*
X73469672Y-23388449D02*
X73469674Y-23388450D01*
X73469675Y-23388450D01*
X73538103Y-23416793D01*
X73599409Y-23457757D01*
X73599689Y-23457944D01*
X73652056Y-23510311D01*
X73652058Y-23510314D01*
X73693207Y-23571897D01*
X73721550Y-23640325D01*
X73721551Y-23640328D01*
X73736000Y-23712966D01*
X73736000Y-23787033D01*
X73721550Y-23859675D01*
X73693207Y-23928103D01*
X73652243Y-23989409D01*
X73652056Y-23989689D01*
X73599689Y-24042056D01*
X73599686Y-24042058D01*
X73538103Y-24083207D01*
X73469675Y-24111550D01*
X73469674Y-24111550D01*
X73469672Y-24111551D01*
X73397034Y-24126000D01*
X73322966Y-24126000D01*
X73250328Y-24111551D01*
X73250326Y-24111550D01*
X73250325Y-24111550D01*
X73181897Y-24083207D01*
X73120314Y-24042058D01*
X73120311Y-24042056D01*
X73067944Y-23989689D01*
X73067757Y-23989409D01*
X73026793Y-23928103D01*
X72998450Y-23859675D01*
X72984000Y-23787033D01*
X72984000Y-23712966D01*
X72998449Y-23640328D01*
X72998450Y-23640325D01*
X73026793Y-23571897D01*
X73067942Y-23510314D01*
X73067944Y-23510311D01*
X73120311Y-23457944D01*
X73120591Y-23457757D01*
X73181897Y-23416793D01*
X73250325Y-23388450D01*
X73250326Y-23388450D01*
X73250328Y-23388449D01*
X73322966Y-23374000D01*
X73397034Y-23374000D01*
X73469672Y-23388449D01*
X73469672Y-23388449D01*
G37*
G36*
X80678014Y-19256973D02*
X80781878Y-19288479D01*
X80877600Y-19339644D01*
X80961501Y-19408499D01*
X81030356Y-19492400D01*
X81081521Y-19588121D01*
X81113027Y-19691985D01*
X81121000Y-19772933D01*
X81121000Y-20427067D01*
X81113027Y-20508015D01*
X81081521Y-20611879D01*
X81030356Y-20707600D01*
X80961501Y-20791501D01*
X80877600Y-20860356D01*
X80781879Y-20911521D01*
X80678015Y-20943027D01*
X80570000Y-20953666D01*
X80461986Y-20943027D01*
X80358122Y-20911521D01*
X80262401Y-20860356D01*
X80178500Y-20791501D01*
X80109645Y-20707600D01*
X80058480Y-20611879D01*
X80026973Y-20508015D01*
X80019000Y-20427067D01*
X80019000Y-19772934D01*
X80026973Y-19691986D01*
X80058479Y-19588122D01*
X80109644Y-19492400D01*
X80178499Y-19408499D01*
X80262400Y-19339644D01*
X80358121Y-19288479D01*
X80461985Y-19256973D01*
X80570000Y-19246334D01*
X80678014Y-19256973D01*
X80678014Y-19256973D01*
G37*
G36*
X72038014Y-19256973D02*
X72141878Y-19288479D01*
X72237600Y-19339644D01*
X72321501Y-19408499D01*
X72390356Y-19492400D01*
X72441521Y-19588121D01*
X72473027Y-19691985D01*
X72481000Y-19772933D01*
X72481000Y-20427067D01*
X72473027Y-20508015D01*
X72441521Y-20611879D01*
X72390356Y-20707600D01*
X72321501Y-20791501D01*
X72237600Y-20860356D01*
X72141879Y-20911521D01*
X72038015Y-20943027D01*
X71930000Y-20953666D01*
X71821986Y-20943027D01*
X71718122Y-20911521D01*
X71622401Y-20860356D01*
X71538500Y-20791501D01*
X71469645Y-20707600D01*
X71418480Y-20611879D01*
X71386973Y-20508015D01*
X71379000Y-20427067D01*
X71379000Y-19772934D01*
X71386973Y-19691986D01*
X71418479Y-19588122D01*
X71469644Y-19492400D01*
X71538499Y-19408499D01*
X71622400Y-19339644D01*
X71718121Y-19288479D01*
X71821985Y-19256973D01*
X71930000Y-19246334D01*
X72038014Y-19256973D01*
X72038014Y-19256973D01*
G37*
M02*
