M48
;DRILL file {KiCad (5.0.2)-1} date 10/12/2019 6:51:32 PM
;FORMAT={-:-/ absolute / metric / decimal}
FMAT,2
METRIC,TZ
T1C0.300
T2C0.400
T3C0.600
T4C0.800
T5C0.813
T6C1.500
T7C0.650
T8C1.702
T9C3.200
T10C3.988
%
G90
G05
T1
X100.2Y-37.8
X76.Y-21.25
X102.6Y-33.8
X92.8Y-43.4
X109.Y-54.6
X76.3Y-31.55
X92.2Y-39.6
X91.8Y-48.4
X85.Y-43.
X100.Y-30.6
X78.8Y-33.
X96.625Y-43.45
X73.8Y-33.
T2
X45.4Y-33.
X46.238Y-46.238
X51.667Y-46.8
X53.6Y-119.
X54.45Y-61.05
X54.45Y-80.2
X54.45Y-99.2
X71.4Y-37.27
X71.4Y-38.2
X72.Y-119.
X72.095Y-30.4
X73.Y-60.8
X73.Y-80.
X73.Y-98.8
X73.8Y-29.45
X75.2Y-43.2
X77.2Y-42.2
X78.955Y-29.55
X81.4Y-29.8
X86.5Y-48.454
X89.6Y-33.
X90.354Y-48.554
X90.8Y-32.2
X92.4Y-61.
X92.4Y-80.2
X92.4Y-98.6
X92.4Y-117.6
X93.2Y-45.
X93.2Y-48.4
X95.004Y-49.567
X95.2Y-68.8
X95.4Y-88.25
X95.6Y-45.6
X96.4Y-106.7
X103.6Y-41.4
X105.6Y-48.
X106.2Y-48.8
X106.225Y-46.035
X106.4Y-47.
X111.4Y-61.
X111.4Y-80.
X111.4Y-99.
X111.4Y-117.6
T4
X43.75Y-36.75
X43.75Y-38.75
X43.75Y-40.75
X45.75Y-36.75
X45.75Y-38.75
X45.75Y-40.75
T5
X56.Y-34.88
X56.Y-37.42
X56.Y-39.96
X56.Y-42.5
T6
X43.925Y-73.6
X45.125Y-72.2
X62.975Y-92.65
X64.175Y-91.25
X101.075Y-111.7
X102.275Y-110.3
X43.925Y-92.65
X45.125Y-91.25
X82.025Y-54.55
X83.225Y-53.15
X62.975Y-111.7
X64.175Y-110.3
X82.025Y-92.65
X83.225Y-91.25
X62.975Y-73.6
X64.175Y-72.2
X101.075Y-54.55
X102.275Y-53.15
X82.025Y-73.6
X83.225Y-72.2
X43.925Y-111.7
X45.125Y-110.3
X62.975Y-54.55
X64.175Y-53.15
X43.925Y-54.55
X45.125Y-53.15
X101.075Y-73.6
X102.275Y-72.2
X82.025Y-111.7
X83.225Y-110.3
X101.075Y-92.65
X102.275Y-91.25
T7
X73.36Y-23.75
X79.14Y-23.75
T8
X42.545Y-114.3
X52.705Y-114.3
X61.595Y-57.15
X71.755Y-57.15
X42.545Y-57.15
X52.705Y-57.15
X99.695Y-76.2
X109.855Y-76.2
X80.645Y-114.3
X90.805Y-114.3
X99.695Y-95.25
X109.855Y-95.25
X42.545Y-76.2
X52.705Y-76.2
X61.595Y-95.25
X71.755Y-95.25
X99.695Y-114.3
X109.855Y-114.3
X42.545Y-95.25
X52.705Y-95.25
X80.645Y-57.15
X90.805Y-57.15
X61.595Y-114.3
X71.755Y-114.3
X80.645Y-95.25
X90.805Y-95.25
X61.595Y-76.2
X71.755Y-76.2
X99.695Y-57.15
X109.855Y-57.15
X80.645Y-76.2
X90.805Y-76.2
T9
X110.4Y-26.8
X42.Y-26.8
X76.25Y-85.75
T10
X66.675Y-114.3
X85.725Y-95.25
X66.675Y-76.2
X104.775Y-57.15
X85.725Y-76.2
X47.625Y-114.3
X66.675Y-57.15
X47.625Y-57.15
X104.775Y-76.2
X85.725Y-114.3
X104.775Y-95.25
X47.625Y-76.2
X66.675Y-95.25
X104.775Y-114.3
X47.625Y-95.25
X85.725Y-57.15
T3
X71.93Y-19.8G85X71.93Y-20.4
G05
X71.93Y-23.73G85X71.93Y-24.83
G05
X80.57Y-19.8G85X80.57Y-20.4
G05
X80.57Y-23.73G85X80.57Y-24.83
G05
T6
X50.125Y-71.65G85X50.125Y-71.15
G05
X69.175Y-90.7G85X69.175Y-90.2
G05
X107.275Y-109.75G85X107.275Y-109.25
G05
X50.125Y-90.7G85X50.125Y-90.2
G05
X88.225Y-52.6G85X88.225Y-52.1
G05
X69.175Y-109.75G85X69.175Y-109.25
G05
X88.225Y-90.7G85X88.225Y-90.2
G05
X69.175Y-71.65G85X69.175Y-71.15
G05
X107.275Y-52.6G85X107.275Y-52.1
G05
X88.225Y-71.65G85X88.225Y-71.15
G05
X50.125Y-109.75G85X50.125Y-109.25
G05
X69.175Y-52.6G85X69.175Y-52.1
G05
X50.125Y-52.6G85X50.125Y-52.1
G05
X107.275Y-71.65G85X107.275Y-71.15
G05
X88.225Y-109.75G85X88.225Y-109.25
G05
X107.275Y-90.7G85X107.275Y-90.2
G05
T0
M30
